<svg width="50" height="50" viewBox="0 0 50 50" fill="none" xmlns="http://www.w3.org/2000/svg">
    <path fill-rule="evenodd" clip-rule="evenodd" d="M25 50C38.8071 50 50 38.8071 50 25C50 11.1929 38.8071 0 25 0C11.1929 0 0 11.1929 0 25C0 38.8071 11.1929 50 25 50Z" fill="#000000"/>
    <rect x="21.0806" y="35.835" width="8.18182" height="1.02273" fill="white"/>
    <path fill-rule="evenodd" clip-rule="evenodd" d="M24.5584 19.2742C24.5584 20.5877 23.4078 21.3497 21.8569 21.3497C20.3061 21.3497 19.1555 20.5476 19.1555 19.3143C19.1555 18.452 19.5457 17.9506 20.2861 17.6097C19.7458 17.2789 19.3956 16.8277 19.3956 16.0656C19.3956 14.9827 20.3762 14.1305 21.8569 14.1305C23.3377 14.1305 24.3182 14.9827 24.3182 16.0656C24.3182 16.8277 23.9681 17.2789 23.4278 17.6097C24.1382 17.9807 24.5584 18.4319 24.5584 19.2742ZM22.8574 16.2361C22.8574 15.7949 22.4872 15.4038 21.8568 15.4038C21.2265 15.4038 20.8563 15.7849 20.8563 16.226C20.8563 16.7274 21.2465 17.0984 21.8568 17.0984C22.4672 17.0984 22.8574 16.7374 22.8574 16.2361ZM21.8568 18.3216C22.5572 18.3216 23.0675 18.6424 23.0675 19.1939C23.0675 19.6952 22.6172 20.0762 21.8568 20.0762C21.0964 20.0762 20.6462 19.6952 20.6462 19.1939C20.6462 18.6424 21.1565 18.3216 21.8568 18.3216ZM28.9463 14.1806H30.247V18.482H31.1875V19.7354H30.247V21.2494H28.7762V19.7354H25.3544L25.1043 18.6424L28.9463 14.1806ZM28.7762 16.2962V18.482H26.9152L28.7762 16.2962Z" fill="white"/>
    <path fill-rule="evenodd" clip-rule="evenodd" d="M20.7386 27.9004C20.7386 29.8847 19.1607 31.51 16.9899 31.51C14.819 31.51 13.2612 29.9047 13.2612 27.9204V27.9004C13.2612 25.9161 14.8391 24.2908 17.01 24.2908C19.1809 24.2908 20.7386 25.8962 20.7386 27.8805V27.9004ZM10.7931 31.3904H12.6022L10.8836 28.8976C11.778 28.5686 12.3911 27.8606 12.3911 26.7338V26.7139C12.3911 25.278 11.3961 24.4105 9.73783 24.4105H6.52174V31.3904H8.06949V29.1569H9.28557L10.7931 31.3904ZM10.8233 26.7936V26.8136C10.8233 27.4019 10.3911 27.8007 9.63737 27.8007H8.06953V25.7965H9.60722C10.361 25.7965 10.8233 26.1355 10.8233 26.7936ZM19.1205 27.9004V27.9204C19.1205 29.117 18.2562 30.0941 17.01 30.0941C15.7637 30.0941 14.8793 29.097 14.8793 27.9004V27.8805C14.8793 26.6839 15.7436 25.7068 16.9899 25.7068C18.2361 25.7068 19.1205 26.7039 19.1205 27.9004ZM29.066 27.9004C29.066 29.8847 27.4881 31.51 25.3172 31.51C23.1463 31.51 21.5886 29.9047 21.5886 27.9204V27.9004C21.5886 25.9161 23.1664 24.2908 25.3373 24.2908C27.5082 24.2908 29.066 25.8962 29.066 27.8805V27.9004ZM27.4478 27.9004V27.9204C27.4478 29.117 26.5835 30.0941 25.3373 30.0941C24.091 30.0941 23.2066 29.097 23.2066 27.9004V27.8805C23.2066 26.6839 24.0709 25.7068 25.3172 25.7068C26.5634 25.7068 27.4478 26.7039 27.4478 27.9004ZM37.2627 31.3904H35.725V26.8335L33.7451 29.815H33.7049L31.7451 26.8635V31.3904H30.2275V24.4105H31.8958L33.7451 27.362L35.5943 24.4105H37.2627V31.3904ZM41.2383 31.4901C42.7559 31.4901 43.8213 30.7124 43.8213 29.3263V29.3064C43.8213 28.0899 43.0172 27.5814 41.5901 27.2124C40.374 26.9033 40.0725 26.7537 40.0725 26.2951V26.2751C40.0725 25.9361 40.3841 25.6669 40.977 25.6669C41.57 25.6669 42.1831 25.9261 42.8062 26.3549L43.6102 25.1982C42.8966 24.6298 42.0223 24.3108 40.9971 24.3108C39.5599 24.3108 38.5348 25.1484 38.5348 26.4147V26.4347C38.5348 27.8207 39.4494 28.2096 40.8665 28.5685C42.0424 28.8677 42.2836 29.0671 42.2836 29.456V29.4759C42.2836 29.8847 41.9017 30.134 41.2685 30.134C40.4645 30.134 39.8011 29.805 39.168 29.2865L38.2534 30.3733C39.0976 31.1212 40.173 31.4901 41.2383 31.4901Z" fill="white"/>
</svg>
