<svg width="36" height="44" fill="none" xmlns="http://www.w3.org/2000/svg"><path d="M35.83 43.184H33.6L15.01 6.17404l1.78-.89L35.83 43.184Z" fill="#000"/><path d="m13.68 8.14404.81 1.62c.41.80996.91.91996 1.48.63996s.78-.74996.37-1.55996l-3.08-6.12c-.41-.81-.92-.94-1.48-.65-.57.28-.77.77-.36 1.58l.61 1.21-1.68.83001-.55-1.10001c-.91-1.81-.52-3.31 1.22-4.19 1.75-.88 3.18-.3 4.09 1.52l2.96 5.90001c.91 1.81.52 3.30995-1.23 4.18995-1.75.88-3.18.3-4.09-1.52l-.76-1.50995 1.69-.84001Z" fill="#000"/><path d="m23.84 8.98405-.76 1.50995c-.91 1.81-2.34 2.4-4.09 1.52-1.75-.88-2.14-2.36996-1.22-4.18996l2.96-5.9c.91-1.81 2.34-2.4 4.09-1.52 1.75.88 2.14 2.37 1.23 4.19l-.55 1.1-1.69-.85.61-1.21c.41-.81.21-1.3-.36-1.58-.57-.29-1.08-.16-1.48.65L19.5 8.82405c-.41.81-.2 1.27995.37 1.55995.57.29 1.07.17 1.47-.63995l.81-1.62001 1.69.86001Z" fill="#000"/><path d="M0 43.184h2.24L20.83 6.17404l-1.78-.89L0 43.184ZM8.28 43.184h2.25l12.65-25.18-1.78-.9-13.12 26.08Z" fill="#000"/><path d="M27.57 43.184h-2.25l-12.64-25.18 1.78-.9 13.11 26.08Z" fill="#000"/></svg>
