
<svg
        width="161"
        height="19"
        viewBox="0 0 161 19"
        fill="none"
        xmlns="http://www.w3.org/2000/svg"
>
    <g clip-path="url(#clip0)">
        <path
                d="M9.39.0C11.99.0 13.91.81 15.68 2.42 15.91 2.63 15.91 2.94 15.71 3.15L13.68 5.26C13.5 5.44 13.21 5.44 13.03 5.26 11.96 4.32 10.79 3.93 9.52 3.93 6.58 3.93 4.42 6.37 4.42 9.29 4.42 12.18 6.6 14.57 9.54 14.57 10.97 14.57 12.09 14.13 13.02 13.32 13.2 13.16 13.54 13.16 13.7 13.35L15.73 15.51C15.91 15.69 15.89 16.03 15.7 16.21 13.93 17.93 11.7 18.73 9.38 18.73 4.19 18.72.0 14.59.0 9.39.0 4.19 4.19.0 9.39.0z"
                fill="#c09"
        />
        <path
                d="M18.46 17.79 26.6.29C26.68.13 26.86.0 27.04.0H27.3C27.48.0 27.66.13 27.74.29L35.88 17.79C36.04 18.13 35.83 18.47 35.44 18.47H32.55C32.08 18.47 31.87 18.31 31.64 17.82L30.7 15.77 27.16 7.57 23.62 15.77 22.68 17.85C22.55 18.16 22.26 18.47 21.74 18.47H18.9C18.51 18.46 18.3 18.12 18.46 17.79z"
                fill="#c09"
        />
        <path
                d="M39.75.75001C39.75.49001 39.96.26001 40.24.26001H48.01C51.31.26001 53.68 2.78001 53.68 5.88001 53.68 8.27001 52.25 10.2 49.83 11.11L53.39 17.71C53.57 18.05 53.39 18.46 52.95 18.46H49.5C49.29 18.46 49.14 18.33 49.08 18.23L45.62 11.34H43.83V17.97C43.83 18.23 43.6 18.46 43.34 18.46H40.25C39.96 18.46 39.76 18.23 39.76 17.97V.75001H39.75zM47.68 8.04001C48.75 8.04001 49.66 7.18001 49.66 5.96001 49.66 4.74001 48.75 3.98001 47.68 3.98001H43.83V8.04001H47.68z"
                fill="#c09"
        />
        <path
                d="M67.08.0C72.28.0 76.44 4.19 76.44 9.39S72.28 18.72 67.08 18.72C61.88 18.72 57.75 14.59 57.75 9.39 57.75 4.19 61.88.0 67.08.0zm0 14.56C69.94 14.56 72.28 12.22 72.28 9.39 72.28 6.53 69.94 4.16 67.08 4.16 64.25 4.16 61.91 6.53 61.91 9.39 61.91 12.22 64.25 14.56 67.08 14.56z"
                fill="#c09"
        />
        <path
                d="M81.15.75001C81.15.49001 81.38.26001 81.64.26001H84.84C85.13.26001 85.33.49001 85.33.75001V11.6C85.33 13.5 86.68 14.56 88.53 14.56 90.4 14.56 91.78 13.49 91.78 11.6V.75001C91.78.49001 91.99.26001 92.27.26001H95.47C95.73.26001 95.96.49001 95.96.75001V11.8C95.96 15.75 92.63 18.72 88.52 18.72 84.44 18.72 81.14 15.76 81.14 11.8V.75001H81.15z"
                fill="#c09"
        />
        <path
                d="M104.54 4.08001H100.82C100.53 4.08001 100.33 3.85001 100.33 3.59001v-2.84C100.33.49001 100.54.26001 100.82.26001H112.36C112.65.26001 112.85.49001 112.85.75001v2.83C112.85 3.84001 112.64 4.07001 112.36 4.07001H108.64V17.95C108.64 18.21 108.41 18.44 108.15 18.44H105.03C104.77 18.44 104.54 18.21 104.54 17.95V4.08001z"
                fill="#c09"
        />
        <path
                d="M117.42.75001C117.42.49001 117.63.26001 117.91.26001H121C121.26.26001 121.49.49001 121.49.75001V14.63H127.68C127.97 14.63 128.17 14.86 128.17 15.12v2.83C128.17 18.21 127.96 18.44 127.68 18.44H117.9C117.61 18.44 117.41 18.21 117.41 17.95V.75001H117.42z"
                fill="#c09"
        />
        <path
                d="M132.5.75001C132.5.49001 132.71.26001 132.99.26001H143.75C144.04.26001 144.24.49001 144.24.75001v2.83C144.24 3.84001 144.03 4.07001 143.75 4.07001H136.55V7.29001H142.48C142.74 7.29001 142.97 7.52001 142.97 7.78001V10.61C142.97 10.9 142.74 11.1 142.48 11.1H136.55v3.51H143.75C144.04 14.61 144.24 14.84 144.24 15.1v2.83C144.24 18.19 144.03 18.42 143.75 18.42H132.99C132.7 18.42 132.5 18.19 132.5 17.93V.75001z"
                fill="#c09"
        />
        <path
                d="M152.18 4.08001H148.46C148.17 4.08001 147.97 3.85001 147.97 3.59001v-2.84C147.97.49001 148.18.26001 148.46.26001H160C160.29.26001 160.49.49001 160.49.75001v2.83C160.49 3.84001 160.28 4.07001 160 4.07001H156.28V17.95C156.28 18.21 156.05 18.44 155.79 18.44H152.67C152.41 18.44 152.18 18.21 152.18 17.95V4.08001z"
                fill="#c09"
        />
    </g>
    <defs>
        <clipPath id="clip0">
            <path d="M0 0H160.5V18.72H0V0z" fill="#fff" />
        </clipPath>
    </defs>
</svg>
