<svg xmlns="http://www.w3.org/2000/svg" viewBox="0 0 444 83" focusable="false" class="douglas-logo__image icon icon--IMAGE"><path fill-rule="evenodd" clip-rule="evenodd" d="M236.574 51.9629V44.5609L282.734 44.557C282.966 66.3058 266.884 82.5024 244.441 82.5024C220.725 82.5024 204.065 65.3324 204.065 41.2013C204.065 17.8316 221.303 0.131592 244.441 0.131592C261.563 0.131592 275.792 9.84939 280.652 25.4676H272.207C267.579 14.1323 257.167 7.53811 244.441 7.53811C225.468 7.53811 211.932 21.6522 211.932 41.2039C211.932 60.8227 225.236 74.8696 244.441 74.8696C259.598 74.8696 271.049 65.7301 273.941 51.9629H236.574ZM66.3946 6.38345C72.8559 2.26547 80.3669 0.0965127 88.0287 0.136156C111.282 0.136156 128.749 17.8362 128.749 41.3212C128.749 64.8063 111.28 82.507 88.0261 82.507C64.5443 82.507 47.538 65.1531 47.538 41.3212C47.5076 33.6043 49.6312 26.0321 53.6699 19.4564C55.7872 20.9911 57.5932 22.9148 58.9914 25.1247C56.5733 30.1783 55.3465 35.7192 55.4055 41.3212C55.4055 60.8729 69.0573 74.8716 88.03 74.8716C107.234 74.8716 120.886 60.8729 120.886 41.3212C120.886 21.6542 107.234 7.54007 88.03 7.54007C82.3349 7.4642 76.7165 8.85897 71.7181 11.5895C70.1497 9.6552 68.3634 7.90829 66.3946 6.38345ZM187.406 60.0631C188.271 56.8575 188.699 53.5496 188.678 50.2293V1.75568H196.545V50.8082C196.545 54.8557 195.969 59.8317 194.926 63.0707C190.992 75.103 181.159 82.507 166.351 82.507C151.542 82.507 141.593 75.3338 137.775 63.3022C136.632 59.3144 136.048 55.1873 136.04 51.039V1.75568H143.907V50.2293C143.886 53.5496 144.314 56.8575 145.18 60.0631C147.956 69.5495 155.823 74.8716 166.235 74.8716C176.762 74.8716 184.63 69.5495 187.406 60.0631ZM51.5868 70.3592C49.4386 71.3116 47.1866 72.0105 44.8766 72.4417C40.7207 73.2246 36.4947 73.5742 32.2666 73.4848H8.31866V9.04419H32.2666C36.4947 8.95482 40.7207 9.30441 44.8766 10.0874C60.0319 13.3264 68.3617 24.3169 68.3617 41.3232C68.4666 46.8929 67.3612 52.4189 65.122 57.5197C66.5387 59.78 68.2946 61.809 70.3281 63.5356C74.1461 57.2883 76.2285 49.6529 76.2285 41.3232C76.2285 20.731 65.3534 7.07912 46.843 3.03031C42.4299 2.1154 37.9296 1.68861 33.4232 1.75764H0.451843V80.8874H33.4232C37.9253 80.9926 42.4254 80.6045 46.843 79.7302C50.3066 78.9912 53.6536 77.7849 56.7922 76.1443C54.7643 74.501 53.0077 72.5488 51.5868 70.3592ZM418.901 34.3803L427.23 38.4291C435.791 42.594 444 48.2669 444 60.8769C444 73.4869 434.977 82.5109 421.441 82.5109C407.561 82.5109 397.612 74.4127 396.34 56.9435H404.21C405.598 69.5508 412.308 74.873 421.563 74.873C430.123 74.873 435.907 69.32 435.907 61.2211C435.907 53.1222 430.469 48.6105 424.454 45.8343L416.012 41.899C406.195 37.3299 399.931 30.7357 399.931 20.3835C399.931 9.04622 408.492 0.138184 420.87 0.138184C432.089 0.138184 440.997 6.96379 442.386 22.2345H434.981C433.711 13.095 429.082 7.31064 420.867 7.31064C412.885 7.31064 407.794 12.6328 407.794 20.0367C407.794 26.6823 411.816 30.9365 418.901 34.3803ZM358.395 1.75568L327.737 80.8874H336.53L345.901 55.7861H378.525L388.012 80.8874H397.035L366.262 1.75568H358.395ZM348.677 48.377H375.749L366.724 24.0822C365.104 19.8004 363.601 15.519 362.213 11.2381C360.825 15.5216 359.436 19.8019 357.816 24.0822L348.677 48.377ZM298.121 1.75568H290.254V80.8874H321.953L325.076 73.4829H298.121V1.75568Z" fill="black"></path></svg>