<svg xmlns="http://www.w3.org/2000/svg" width="240" height="48.312" xml:space="preserve"><path fill="#00A0AE" d="M44.908 48.312H3.397A3.4 3.4 0 0 1 0 44.915V3.397A3.4 3.4 0 0 1 3.397 0h41.511a3.396 3.396 0 0 1 3.397 3.397v7.127h5.709c1.88 0 3.396 1.52 3.396 3.397a3.394 3.394 0 0 1-3.396 3.397h-9.106a3.398 3.398 0 0 1-3.397-3.397V6.797H6.794v34.717h34.717V24.668a3.4 3.4 0 0 1 3.397-3.4h9.106a3.396 3.396 0 0 1 3.396 3.4 3.394 3.394 0 0 1-3.396 3.396h-5.709v16.851a3.397 3.397 0 0 1-3.397 3.397"/><path fill="#333F48" d="M82.739 29.531c0 1.631-.795 2.442-2.393 2.442h-7.994c-4.778 0-7.171-2.527-7.171-7.596V12.991c0-1.651.802-2.477 2.393-2.477h12.644c1.665-.013 2.5.809 2.5 2.46-.014 1.604-.822 2.426-2.433 2.46l-10.319-.018v3.303l7.151-.033c1.611.023 2.42.873 2.42 2.561.006 1.604-.782 2.406-2.373 2.406l-7.198.018v.825c0 1.682.809 2.527 2.433 2.527l7.994.017c1.564 0 2.346.833 2.346 2.491M85.273 29.437V12.974c0-1.627.789-2.443 2.386-2.443l7.993-.017c4.779 0 7.171 2.531 7.171 7.592v11.395c0 1.65-.802 2.473-2.393 2.473-1.591 0-2.393-.835-2.393-2.507V18.009c0-1.695-.802-2.544-2.413-2.544H90.05v13.972c0 1.668-.809 2.507-2.426 2.507-1.569-.001-2.351-.84-2.351-2.507M122.902 29.531c0 1.631-.795 2.442-2.386 2.442h-7.994c-4.779 0-7.171-2.527-7.171-7.596V12.991c0-1.651.795-2.477 2.393-2.477h12.644c1.665-.013 2.5.809 2.5 2.46-.007 1.604-.822 2.426-2.439 2.46l-10.319-.018v3.303l7.151-.033c1.618.023 2.419.873 2.419 2.561.014 1.604-.775 2.406-2.372 2.406l-7.198.018v.825c0 1.682.815 2.527 2.44 2.527l7.993.017c1.563 0 2.339.833 2.339 2.491M139.024 19.593c-1.625 0-2.44-.836-2.44-2.507v-1.621h-3.929c-1.625 0-2.44.849-2.44 2.544v11.458c0 1.675-.795 2.507-2.386 2.507s-2.393-.822-2.393-2.473V18.11c0-5.065 2.393-7.596 7.171-7.596l6.369.017c1.591 0 2.387.815 2.387 2.443v4.112c0 1.671-.776 2.507-2.339 2.507M150.144 15.435c-1.617 0-2.419.846-2.419 2.541v6.456c0 1.695.809 2.545 2.433 2.545h5.561V15.435h-5.575zm10.353-2.461v18.292c0 4.873-2.251 7.784-7.022 7.784h-5.823c-1.53 0-2.299-.829-2.306-2.477-.013-1.638.749-2.46 2.271-2.46h6.538c1.139.013 1.563-1.031 1.563-2.188h-5.607c-4.778 0-7.164-2.53-7.164-7.596v-6.355c0-5.008 2.412-7.515 7.245-7.515h7.966c1.557.001 2.339.84 2.339 2.515M180.582 12.974v18.292c0 4.873-2.244 7.784-7.022 7.784h-5.823c-1.53 0-2.299-.829-2.306-2.477-.013-1.638.748-2.46 2.278-2.46h6.531c1.139.013 1.563-1.031 1.563-2.188h-5.607c-4.778 0-7.165-2.53-7.165-7.596V12.94c0-1.651.796-2.48 2.387-2.48 1.597 0 2.393.839 2.393 2.514v11.458c0 1.695.809 2.545 2.433 2.545h5.561V12.974c0-1.675.815-2.514 2.439-2.514 1.556 0 2.338.839 2.338 2.514M193.468 27.007c1.611 0 2.42-.799 2.42-2.396v-6.602c0-1.695-.809-2.544-2.42-2.544h-5.573v11.542h5.573zm-10.352 2.46V6.319c0-1.638.796-2.46 2.386-2.46 1.591 0 2.394.843 2.394 2.528v4.128h5.601c4.778 0 7.171 2.531 7.171 7.592v6.44c0 4.954-2.399 7.427-7.198 7.427h-8c-1.572 0-2.354-.835-2.354-2.507M210.332 15.465c-1.57 0-2.358.822-2.358 2.46v6.524c0 1.694.788 2.541 2.358 2.541h3.222c1.611 0 2.42-.847 2.42-2.541V17.86c0-1.594-.809-2.396-2.42-2.396h-3.222zm.046-4.985h3.175c4.799 0 7.198 2.484 7.198 7.444v6.423c0 5.065-2.393 7.596-7.171 7.596h-3.263c-4.744 0-7.117-2.477-7.117-7.427v-6.575c.001-4.973 2.393-7.461 7.178-7.461M239.226 14.724c1.071-1.268 1.024-2.437-.155-3.515-1.2-1.102-2.346-1.021-3.424.246l-4.334 5.708-4.334-5.708c-1.085-1.267-2.23-1.348-3.444-.246-1.166 1.078-1.213 2.248-.141 3.515l4.879 6.446-4.893 6.446c-1.065 1.254-1.012 2.45.154 3.586 1.214 1.075 2.339.998 3.384-.232l4.388-5.793 4.388 5.793c1.052 1.23 2.177 1.308 3.391.232 1.166-1.136 1.22-2.332.154-3.586l-4.893-6.449 4.88-6.443z"/></svg>
