<svg xmlns="http://www.w3.org/2000/svg" xml:space="preserve" viewBox="0 0 1800 278"><path fill="#000" d="M.4 273.9H200v-62.1H72.8V168H179v-58.7H72.8v-40h121.5V7.2H.4zm411.1-133.5L305.3 7.1h-88.8l106.2 133.3-106.3 133.3h88.8zm49.7-56.1L529.4 7h-88.8l-68.2 77.3zm186.6 17.6c1.2 4 25.9 74.4 25.9 74.4h-52.2s25.1-70.3 26.3-74.4m137 172L679.2 7.2h-60.9l-100.9 253-56.3-63.7h-88.8l68.2 77.3H512l-.1.1h73.5l16.3-44.2h91.6l16.3 44.2zM978.7 94.4l45.3-52.6c-8.4-9.1-17.9-16.8-28.6-22.9S973.4 8.2 961.3 5 936.9.2 924.2.2c-21.1 0-40.5 3.4-58.3 10.3s-33.1 16.5-46.1 29c-13 12.4-23.1 27.1-30.3 44s-10.9 35.4-10.9 55.4q0 30.45 10.5 55.8t29.7 43.8c12.8 12.3 28 21.9 45.5 28.8s36.7 10.3 57.5 10.3c13.2 0 26.3-1.6 39.4-4.8s25-7.5 35.8-13.2c10.8-5.6 19.4-11.9 25.7-19L987 183.9q-6.9 6.9-15.6 12.6c-5.8 3.8-12.3 6.8-19.2 9.1-7 2.3-14.4 3.4-22.3 3.4-11.2 0-21.3-1.6-30.3-4.9s-16.8-7.9-23.2-13.9c-6.5-6-11.4-13.2-14.9-21.7q-5.1-12.75-5.1-28.8 0-16.8 5.1-29.7c3.4-8.6 8.2-16 14.3-22.1s13.3-10.7 21.5-13.9 17.1-4.8 26.5-4.8c8.1 0 15.6 1.1 22.3 3.2 6.7 2.2 12.8 5.1 18.1 8.9 5.3 4 10.1 8.3 14.5 13.1m228.1-22.1h83.4V7.2h-239.6v65.1h80.8v201.5h75.4zm192 29.6c1.2 4 25.9 74.4 25.9 74.4h-52.2s25.1-70.3 26.3-74.4m136.9 172L1430.2 7.2h-61L1263 273.9h73.5l16.3-44.2h91.6l16.3 44.2zm264.9-114c0-2.3-.1-6.2-.2-11.8s-.4-11.2-.8-17c-.4-5.7-.7-9.9-.9-12.8h-128.8v54.9h59.6v-.3c.1.1.1.2.2.3h-.2c-.5 4.3-1.5 8.5-3.3 12.4q-3.75 8.25-10.5 14.1c-4.4 3.9-9.7 7.1-15.8 9.3-6.1 2.3-12.7 3.4-19.8 3.4-10.2 0-19.6-1.8-28.4-5.5s-16.3-8.8-22.7-15.4c-6.3-6.6-11.3-14.4-14.9-23.4s-5.3-18.7-5.3-29.1c0-10.7 1.7-20.5 5.1-29.5s8.2-16.8 14.3-23.2c6.1-6.5 13.3-11.5 21.5-15.2s17.3-5.5 27.2-5.5c8.9 0 17 1.1 24.2 3.4s14 5.3 20.2 9.1 12.1 8.4 17.7 13.7l45-48c-7.6-8.1-16.8-15.5-27.4-22.1q-16.05-9.9-36-15.6c-13.3-3.8-27.5-5.7-42.5-5.7-21.8 0-41.7 3.4-59.6 10.3s-33.5 16.5-46.7 29c-13.2 12.4-23.3 27.1-30.3 44s-10.5 35.4-10.5 55.4c0 19.8 3.2 38.2 9.5 55.2s15.7 31.8 28 44.2 27.2 22.1 44.8 28.9c17.5 6.9 37.3 10.3 59.4 10.3 18.5 0 35.6-2.9 51-8.8 15.5-5.8 29-14 40.4-24.4s20.3-22.9 26.7-37.3c6.6-14.5 9.8-30.2 9.8-47.3" class="exactag-logo"/></svg>