<svg width="146" height="28" fill="none" xmlns="http://www.w3.org/2000/svg"><g clip-path="url(#a)" fill="#000"><path d="M4.04 7.45H.316v3.774H4.04v16.273h3.956V11.224h4.631V7.449H7.996V3.522h5.099V0H4.04v7.45ZM24.668 7.45h-10.5v20.047h3.917V11.224h6.583V7.449ZM39.716 8.372c-1.556-.901-3.317-1.356-5.24-1.356s-3.718.455-5.273 1.356a10.013 10.013 0 0 0-3.7 3.718c-.9 1.565-1.356 3.373-1.356 5.364 0 1.992.461 3.806 1.375 5.383a10.09 10.09 0 0 0 3.718 3.737c1.552.9 3.316 1.359 5.24 1.359 1.923 0 3.609-.452 5.164-1.337a10.087 10.087 0 0 0 3.737-3.718c.926-1.58 1.393-3.404 1.393-5.42 0-2.017-.458-3.797-1.355-5.365a10.012 10.012 0 0 0-3.7-3.718M37.606 23.26c-.93.573-1.98.863-3.127.863-1.147 0-2.234-.29-3.163-.863-.932-.574-1.683-1.375-2.235-2.375-.552-1.004-.832-2.157-.832-3.429 0-1.271.28-2.418.832-3.406a6.369 6.369 0 0 1 2.235-2.357c.929-.573 1.991-.863 3.163-.863 1.172 0 2.198.29 3.127.863a6.239 6.239 0 0 1 2.216 2.353c.542.992.816 2.139.816 3.41 0 1.272-.274 2.428-.816 3.432a6.203 6.203 0 0 1-2.216 2.372ZM46.42 27.497h3.92V11.224h8.847v16.273h3.955V7.449H46.42v20.048ZM70.023 11.224H74.4V7.449h-4.377V2.967h-3.917v24.53h8.512v-3.775h-4.594V11.224ZM77.155 27.497h3.921V11.224h8.846v16.273h3.955V7.449H77.155v20.048ZM111.132 8.372c-1.556-.901-3.316-1.356-5.24-1.356-1.923 0-3.718.455-5.273 1.356a10.01 10.01 0 0 0-3.7 3.718c-.9 1.565-1.356 3.373-1.356 5.364 0 1.992.461 3.806 1.375 5.383a10.068 10.068 0 0 0 3.718 3.737c1.556.9 3.316 1.359 5.24 1.359 1.923 0 3.609-.452 5.164-1.337a10.076 10.076 0 0 0 3.737-3.718c.926-1.58 1.393-3.404 1.393-5.42 0-2.017-.455-3.797-1.355-5.365a10.04 10.04 0 0 0-3.7-3.718m-2.113 14.886c-.929.573-1.98.863-3.126.863-1.148 0-2.235-.29-3.164-.863a6.31 6.31 0 0 1-2.235-2.375c-.552-1.004-.832-2.157-.832-3.429 0-1.271.28-2.418.832-3.41a6.395 6.395 0 0 1 2.235-2.356c.929-.573 1.992-.863 3.164-.863 1.172 0 2.197.29 3.126.863a6.235 6.235 0 0 1 2.216 2.353c.542.992.816 2.142.816 3.41 0 1.269-.274 2.425-.816 3.432a6.177 6.177 0 0 1-2.216 2.372M141.094 7.45l-4.498 13.66-4.357-13.66h-3.587l-4.358 13.654-4.46-13.655h-4.317l6.82 19.86.063.188h3.621l4.426-14.032 4.423 14.032h3.622l6.881-20.048h-4.279Z"/></g><defs><clipPath id="a"><path fill="#fff" d="M0 0h145.778v28H0z"/></clipPath></defs></svg>
