<svg xmlns:xlink="http://www.w3.org/1999/xlink" xmlns="http://www.w3.org/2000/svg" viewBox="0 0 1933 359" fill="currentColor">
    <path d="M0 186.3L173.8 359H27c-15 0-27-12-27-27V186.3zm346-3.7V332c0 15-12 27-27 27h-19.2L235 294l111-111.4zM346 0v162.6l-53.6-53.8L172 228.5l-54-54.1L238.3 54.6 184 0h162zM162 0L0 162.3V27C0 12 12 0 27 0h135z"></path>
    <path d="M1901.35 188.188c17.348 0 31.045-13.696 31.045-31.098v-.376c0-17.349-13.697-31.045-31.045-31.045h-.376c-17.403 0-31.099 13.696-31.099 31.045v.376c0 17.402 13.696 31.098 31.099 31.098h.376zm0-6.875h-.376c-13.59 0-24.224-10.634-24.224-24.223v-.376c0-13.535 10.635-24.17 24.224-24.17h.376c13.535 0 24.17 10.635 24.17 24.17v.376c0 13.589-10.635 24.223-24.17 24.223zm-5.64-8.486v-11.172h5.693l6.177 11.172h8.003l-7.036-12.353c3.813-1.504 6.015-5.05 6.015-8.97v-.054c0-6.499-4.35-10.42-11.977-10.42h-13.911v31.797h7.036zm6.07-16.65h-6.07v-9.185h6.016c3.437 0 5.586 1.826 5.586 4.566v.053c0 2.793-2.041 4.566-5.533 4.566z"></path>
    <path d="M516.727 286v-78.809h81.884V166.03h-81.884v-48.193h90.087V74.623H462.967V286h53.76zm162.304 0v-84.668c0-22.705 11.865-34.717 33.692-34.717 6.152 0 12.158 1.172 16.552 2.93V125.16c-3.955-1.318-8.496-2.05-13.476-2.05-18.75 0-31.348 11.425-35.742 31.64h-1.026v-28.271H627.03V286h52.002zm138.721 3.37c50.244 0 81.592-30.323 81.592-83.058v-.292c0-52.002-31.934-82.91-81.592-82.91-49.512 0-81.592 31.2-81.592 82.91v.292c0 52.588 31.055 83.057 81.592 83.057zm.146-39.405c-18.017 0-29.003-15.528-29.003-43.653v-.292c0-27.54 11.279-43.506 28.857-43.506s29.004 15.966 29.004 43.506v.292c0 27.979-11.133 43.653-28.858 43.653zM971.414 286v-90.527c0-17.725 10.254-30.03 26.807-30.03 16.992 0 25.634 10.694 25.634 29.004V286h51.856V183.314c0-37.793-19.775-60.205-54.785-60.205-24.17 0-40.576 11.426-48.487 31.495h-1.025v-28.125h-52.002V286h52.002zm197.9 3.37c10.84 0 18.604-.88 24.317-1.905V250.55c-2.93.44-5.567.732-9.668.732-12.744 0-18.897-5.127-18.897-18.896v-67.823h28.565V126.48h-28.565V89.71h-52.002v36.768h-21.68v38.085h21.68v74.854c0 36.035 17.579 49.951 56.25 49.951zm102.979-3.37V162.66h1.025L1358.28 286h45.117V74.623h-53.613v122.022h-1.025l-84.522-122.022h-45.556V286h53.613zm236.28 3.37c50.243 0 81.591-30.323 81.591-83.058v-.292c0-52.002-31.934-82.91-81.592-82.91-49.511 0-81.592 31.2-81.592 82.91v.292c0 52.588 31.055 83.057 81.592 83.057zm.146-39.405c-18.018 0-29.004-15.528-29.004-43.653v-.292c0-27.54 11.28-43.506 28.857-43.506 17.578 0 29.004 15.966 29.004 43.506v.292c0 27.979-11.133 43.653-28.857 43.653zM1694.02 286l24.903-107.373h1.025L1745.291 286h55.957l41.162-159.521h-51.27l-20.214 112.646h-1.026l-24.609-112.646h-49.658l-24.317 112.646h-1.025l-20.361-112.646h-52.442L1638.943 286h55.078z"></path>
</svg>
