
<svg xmlns="http://www.w3.org/2000/svg" viewBox="0 0 162.2 68.1"><path fill="#f05a23" d="M1.9 47.2A6 6 0 0 1 3.3 45a13.28 13.28 0 0 1 1.6-1.2 6.36 6.36 0 0 1 1.8-.6 3.39 3.39 0 0 1 .4 3.7L6.2 49a5.87 5.87 0 0 0-.4 2.3 7.77 7.77 0 0 0 .2 1.6 4.71 4.71 0 0 0 .6 1.5 9.62 9.62 0 0 0 3.5 3.9 8.48 8.48 0 0 0 4.9 1 5.26 5.26 0 0 0 2.8-1 7.56 7.56 0 0 0 1.8-2.4 7.18 7.18 0 0 0 .9-2.7c.2-.9.3-1.9.5-2.8a37.48 37.48 0 0 0 .5-4.7c0-1.6.1-3.1.2-4.7.1-1.2.1-2.4.2-3.5s.1-2.4.1-3.5.1-2.1.1-3.1 0-2 .1-3.1.1-2.1.2-3.1.1-2.1.2-3.2.1-2.1.2-3.1.1-2.1.2-3.1c.1-1.8.2-3.6.3-5.3s.2-3.5.3-5.3c0-.3.1-.5.1-.8a1.7 1.7 0 0 0 .1-.7 2.12 2.12 0 0 1 .4-1.4 9.43 9.43 0 0 1 1-1 1.31 1.31 0 0 1 1.2-.3 1.85 1.85 0 0 1 1.2.7 11.26 11.26 0 0 1 2.5 5 33.09 33.09 0 0 1 .7 5.5c.1 1.8.1 3.7.1 5.5v4.2c-.1 1.3-.1 2.7-.2 4s-.1 2.7-.2 4.1-.1 2.8-.1 4.2 0 2.8-.1 4.2c-.1 1.8-.1 3.5-.2 5.2s-.2 3.5-.4 5.2a27.11 27.11 0 0 1-5.2 13.5c-.5.7-1 1.3-1.5 2a7.69 7.69 0 0 1-1.8 1.8 11.46 11.46 0 0 1-3.9 2.1 11.06 11.06 0 0 1-4.5.3 15.55 15.55 0 0 1-7.4-3.1 16.44 16.44 0 0 1-4.7-6.4 10.49 10.49 0 0 1-.9-4.1 11.41 11.41 0 0 1 .7-4.1l.6-1.5c.3-.6.5-1.1.8-1.6zM69.2 0c0 .4-.1.7-.1 1v1c0 1 .1 2 .1 3s.1 2 .1 3v6.8c0 1.5.1 2.9.1 4.3s.1 2.9.1 4.3c0 1.8-.1 3.6-.1 5.5s-.1 3.6-.1 5.5c0 1-.1 2-.1 2.9a28.1 28.1 0 0 1-.1 2.9c-.1 1.6-.2 3.1-.3 4.6s-.3 3.1-.5 4.6a45.22 45.22 0 0 1-1.1 5.3 26.4 26.4 0 0 1-1.9 5.1 14.24 14.24 0 0 1-2.6 3.8 12.11 12.11 0 0 1-3.8 2.8A17.59 17.59 0 0 1 54 68a8.49 8.49 0 0 1-5.1-.7 19.65 19.65 0 0 1-2.5-1.3 9 9 0 0 1-2-1.9 38.65 38.65 0 0 1-2.7-4.3 18.91 18.91 0 0 1-1.7-4.9 24.54 24.54 0 0 0-.8-2.9c-.3-1-.5-2-.7-3-.2-1.4-.4-2.8-.5-4.1l-.3-4.2q-.45-6-.6-12c-.1-1.8-.1-3.6-.1-5.3v-5.3c0-2-.1-3.9-.1-5.8V5a7.57 7.57 0 0 1 .1-1.5A4.72 4.72 0 0 1 38.1 1a3.42 3.42 0 0 1 3-.9 4.81 4.81 0 0 1 2.2.8 3.12 3.12 0 0 1 1.2 2c.1.2.1.3.2.5s.1.3.2.5A13.21 13.21 0 0 1 46.1 7c.3 1.1.6 2.1.8 3.2a36 36 0 0 1 .8 5.6c.1 1.9.2 3.8.3 5.6.1 1.1.1 2.2.2 3.3s.1 2.2.2 3.3c.1 1.5.2 2.9.3 4.4s.2 2.9.3 4.3.1 2.9.2 4.3.2 2.9.4 4.4a40.48 40.48 0 0 0 .9 4.8c.3 1.6.7 3.1 1.1 4.7a10.66 10.66 0 0 0 .7 1.9 16.18 16.18 0 0 0 1 1.8 4.51 4.51 0 0 0 2.1 2 8.82 8.82 0 0 0 2.9.7 2 2 0 0 0 .9-.2c.2-.1.4-.4.6-.6a15.57 15.57 0 0 0 1.6-2.8 17.6 17.6 0 0 0 1-3 36.58 36.58 0 0 0 1-5.6c.2-1.9.3-3.7.4-5.6 0-2.1.1-4.1.1-6.1s.1-4 .2-6.1c.1-1.6.1-3.2.1-4.8s0-3.2.1-4.8c.1-1.3.1-2.7.2-4s.1-2.7.2-4c.1-1.1.1-2.2.2-3.3s.1-2.2.1-3.3a11.53 11.53 0 0 1 .3-2.6A10.27 10.27 0 0 1 66 2 2.67 2.67 0 0 1 67.1.6a2.17 2.17 0 0 1 2.1-.6zM95.7 7.8c-1.1-.1-2.2-.1-3.3-.1s-2.1-.1-3.2-.1c-1.8-.1-3.7-.1-5.5-.2s-3.7-.1-5.5-.2a.9.9 0 0 1-.5-.1 1.09 1.09 0 0 0-.5.1 4.07 4.07 0 0 1-2.2-.1 8.82 8.82 0 0 1-2-.9 3 3 0 0 1-1.4-2 2.63 2.63 0 0 1-.1-1.2c.1-.3.4-.5.9-.7s1.1-.4 1.7-.6a5.08 5.08 0 0 1 1.7-.3l5.2-.3c1.7-.1 3.5-.2 5.2-.2s3.5-.1 5.3-.2S95 .6 96.8.5h2.6a22.6 22.6 0 0 0 2.6-.1 73 73 0 0 1 8.1-.1c2.7.1 5.4.2 8.1.4 1 .1 2.1.1 3.3.1a8 8 0 0 1 3.2.5 1.63 1.63 0 0 1 .6.3 1.54 1.54 0 0 0 .7.3c0 .2-.1.3-.1.4v.2l-2 3.3a2.42 2.42 0 0 1-1.8 1.3c-1.2.1-2.3.3-3.5.4a19.53 19.53 0 0 1-3.4.3c-1.8.1-3.6.1-5.4.1s-3.5 0-5.4.1h-.3a.76.76 0 0 0-.4.1V9a42.22 42.22 0 0 1 .7 6.1c.1 2 .2 4.1.3 6.2.1 1.8.1 3.6.2 5.4s.2 3.6.2 5.4c.1 2.6.2 5.2.3 7.7l.3 7.8c.1 1.8.1 3.6.2 5.3s.1 3.5.1 5.4a16.2 16.2 0 0 1-.1 2.2 17 17 0 0 0-.1 2.3c0 .3-.1.6-.1.9v.9a4.48 4.48 0 0 1-.1 1.2 2.22 2.22 0 0 1-.5 1.1 3.64 3.64 0 0 1-1 1.1 2.4 2.4 0 0 1-1.5.2 5.6 5.6 0 0 1-2.7-1.2 6.58 6.58 0 0 1-1.7-2.3 9.87 9.87 0 0 1-1-2.7c-.2-.9-.4-1.8-.6-2.8a44.54 44.54 0 0 1-.5-5c-.1-1.7-.1-3.3-.1-5a8.08 8.08 0 0 0-.1-1.6c0-.5-.1-1.1-.1-1.6l-.3-7c-.2-3.1-.3-6.2-.5-9.3s-.3-6.2-.4-9.3a62.94 62.94 0 0 1 .8-11.5v-.3c.3-.5.3-.6.3-.8zM128.4 46.5a2 2 0 0 1 .8-.8 1.61 1.61 0 0 1 .9-.3 2.05 2.05 0 0 1 1.1 0 1.21 1.21 0 0 1 .5.5 1.48 1.48 0 0 1 .1.7v5.1a10.19 10.19 0 0 0 .8 4 16.8 16.8 0 0 0 2.1 3.6 5.1 5.1 0 0 0 2.4 1.6 10.12 10.12 0 0 0 5.4.4 16.67 16.67 0 0 0 5-2.1 8.74 8.74 0 0 0 1-.8l.9-.9a6.27 6.27 0 0 0 1.6-2.7 17 17 0 0 0 .6-3.1 33.33 33.33 0 0 0-.2-5.5 24.37 24.37 0 0 0-1.4-5.3 30.9 30.9 0 0 0-1.4-3.2 13.75 13.75 0 0 0-1.9-3 16.61 16.61 0 0 0-1.3-1.4 17.41 17.41 0 0 0-1.4-1.2c-1.1-.9-2.2-1.8-3.3-2.6s-2.4-1.5-3.6-2.2c-.9-.4-1.8-.9-2.7-1.4a10.77 10.77 0 0 1-2.4-1.8c-.8-.8-1.5-1.6-2.2-2.4a9.7 9.7 0 0 1-1.6-2.8 14.56 14.56 0 0 1-.9-5.2 19.09 19.09 0 0 1 .6-3.3 12.32 12.32 0 0 1 1.4-3.1 16.27 16.27 0 0 1 8.4-6.6 12.81 12.81 0 0 1 5.5-.6c.5.1 1.1.1 1.6.2a9.36 9.36 0 0 1 1.6.4 11.45 11.45 0 0 1 3.6 1.5 23.4 23.4 0 0 1 3.1 2.4c.4.4.7.8 1 1.1a10.63 10.63 0 0 0 .9 1.1c.2.3.5.5.7.8s.5.6.7.8c.4.6.7 1.1 1.1 1.7s.7 1.1 1.1 1.7a2.24 2.24 0 0 1 .3 1 2.1 2.1 0 0 1-.6.8 1.56 1.56 0 0 1-2.1.2 14.63 14.63 0 0 1-1.3-.9 14.7 14.7 0 0 0-1.3-1 7.44 7.44 0 0 0-2.2-1.4 10.43 10.43 0 0 0-2.5-.8 13.4 13.4 0 0 0-4 0 8.53 8.53 0 0 0-3.6 1.7c-1.6 1.2-2.2 2.7-1.7 4.2a3.39 3.39 0 0 0 .9 1.4 14.63 14.63 0 0 0 1.3.9c.8.5 1.6.9 2.4 1.3s1.6.8 2.4 1.3a23.85 23.85 0 0 1 6.2 5.2c.7.8 1.3 1.6 1.9 2.4a22 22 0 0 1 1.7 2.5c.6 1 1.2 2.1 1.8 3.2a20.25 20.25 0 0 1 1.4 3.4c.3 1 .6 2.1.9 3.1a30.05 30.05 0 0 1 .7 3.2 29.27 29.27 0 0 1-.4 9.8 18.79 18.79 0 0 1-1.6 4.9 22.66 22.66 0 0 1-2.7 4.4 3.24 3.24 0 0 1-.8.9 34.05 34.05 0 0 1-4.2 2.8 19.78 19.78 0 0 1-4.8 1.8 14.25 14.25 0 0 1-6.5 0 15.36 15.36 0 0 1-5.8-3 8.64 8.64 0 0 1-1.4-1.3 16.61 16.61 0 0 1-1.3-1.4 10.14 10.14 0 0 1-1.6-2.6 24.88 24.88 0 0 1-1.1-2.9 15.4 15.4 0 0 1-1-5.1 16.2 16.2 0 0 1 .1-2.2 16.35 16.35 0 0 0 .2-2.2c-.1-.5-.1-.7.1-.9z" /></svg>
