<svg width="1256" height="954" xmlns="http://www.w3.org/2000/svg"><path d="M252.19 60.005c0 21.043-46.622 427.184-62.089 616.784l5.238-.869a6789.761 6789.761 0 0 1 111.384-17.457c-42.605-20.468-67.814-75.33-58.957-138.016 10.953-77.523 69.857-137.657 131.566-134.314 31.878 1.727 56.261 19.046 70.412 45.76 3.943-37.436 11-74.242 12.106-100.497-2.96-46.295 45.71-46.295 146.01 0-30.478 141.727-39.806 204.655-27.985 188.784 17.731-23.807 55.581-124.538 95.268-279.146 11.984-24.684 126.72-19.527 145.772 12.79-7.067 108.561-35.153 233.387-71.642 373.983a23348.2 23348.2 0 0 0 45.17-96.61c4.29-15.625 11.905-31.928 23.652-48.418 63.78-89.536 126.483-103.875 169.657-98.257 1.027-52.111 17.457-298.878 20.806-338.212 3.348-39.333 144.517 2.873 145.106 61.445 1.837 182.74-6.658 448.433 28.84 581.22 8.863 33.15-27.58 5.765-35.498 13.027-38.497 35.303-107.177-2.25-108.448-6.295-16.486-52.452-53.646-165.439-51.564-210.883-32.132 140.174-76.48 171.49-125.554 171.49-28.43 0-59.87-28.19-68.894-69.315-27.435 53.068-57.778 126.346-91.03 219.833-12.547 46.66-25.399 94.76-38.198 144.289-19.808 9.635-73.485-9.273-70.136-40.084C639.94 693.005 665.036 517.993 668.472 386 618.28 514.326 579.856 580.322 553.2 583.989c-54.313 4.918-82.322-14.2-95.606-44.679l.009-.005c-11.824 49.512-36.796 94.354-70.978 115.265 13.462 19.042 9.763 80.309-19.13 85.942-107.888 21.036-260.398 69.402-336.176 86.84-21.297 4.902-7.859-20.757-13.434-26.115C-9.22 775.19 1.941 717.93 4.13 716.51c3.447-2.234 11.195-4.897 22.193-7.855l.006.024c4.967-152.677 24.487-593.003 24.518-670.16.036-88.36 201.343 0 201.343 21.486Zm716.41 422.12c-1.664 1.382-3.32.155-12.426 7.226-23.217 18.473-46.67 38.187-56.442 66.87-9.772 28.684-7.15 42.646 1.991 48.137 9.14 5.491 26.003-10.263 42.855-54.893 10.487-27.774 20.688-56.508 24.021-67.34ZM392.444 601.754c.58 4.617 5.022 4.617 5.022.214 3.436 0 19.26-23.95 28.998-50.738s14.008-49.348 6.73-60.1c-19.227-23.347-49.177 43.535-40.75 110.624ZM1220 1c7.228 0 13.561 1.482 19 4.447s9.632 7.165 12.579 12.6C1254.526 23.482 1256 29.8 1256 37c0 7.2-1.474 13.518-4.421 18.953-2.947 5.435-7.14 9.635-12.579 12.6-5.439 2.965-11.772 4.447-19 4.447s-13.561-1.482-19-4.447-9.632-7.165-12.579-12.6C1185.474 50.518 1184 44.2 1184 37c0-7.2 1.474-13.518 4.421-18.953 2.947-5.435 7.14-9.635 12.579-12.6C1206.439 2.482 1212.772 1 1220 1Zm0 6.882c-5.754 0-10.772 1.2-15.053 3.6-4.28 2.4-7.596 5.789-9.947 10.165-2.35 4.377-3.526 9.494-3.526 15.353s1.175 10.976 3.526 15.353c2.35 4.376 5.667 7.765 9.947 10.165 4.281 2.4 9.299 3.6 15.053 3.6 5.754 0 10.772-1.2 15.053-3.6 4.28-2.4 7.596-5.789 9.947-10.165 2.35-4.377 3.526-9.494 3.526-15.353s-1.175-10.976-3.526-15.353c-2.35-4.376-5.667-7.765-9.947-10.165-4.281-2.4-9.299-3.6-15.053-3.6Zm2.421 9.742c4.421 0 7.982 1.129 10.684 3.388 2.702 2.259 4.053 5.294 4.053 9.106 0 2.964-.842 5.488-2.526 7.57-1.685 2.083-4 3.512-6.948 4.288L1238 56.8h-8l-9.368-14.188h-7.158V56.8h-7.053V17.624h16Zm-.105 5.4h-8.842v14.188h8.842c5.193 0 7.79-2.365 7.79-7.094 0-4.73-2.597-7.094-7.79-7.094Z" fill="#000" fill-rule="nonzero"/></svg>
