<svg version="1.0" xmlns="http://www.w3.org/2000/svg" width="242.667" height="416" viewBox="0 0 182 312"><g fill="#1A2646"><path d="M130.9 50.3c-4.2 2.8-4.1 2.5-7.5 39.2-1.4 15.9-2.9 32.5-3.3 36.7-.8 8.7.3 25.9 1.8 28.7.8 1.3 2.6 2 7.1 2.4 7.2.6 8 1.2 16.6 12.6 7.4 9.8 7.4 9.9 4.8-9-1.7-13.2-2-65.6-.4-89.6 1-15.2.7-17.7-3.1-21.2-3.2-3-11.4-2.9-16 .2z"/><path d="M20.3 74.2c-2.5 1.2-5.3 6.5-5.3 10 0 1.2 3.1 18.3 6.9 37.9 6.9 35 8.5 44.8 11.6 70.2 3 24.6 7.6 39.3 15.7 49.4 6.9 8.7 21.9 17.7 33.6 20.2 13.1 2.7 35.1.4 44.6-4.7 10.2-5.6 21.1-21.2 27.3-39.2 3.7-10.7 5-18.3 3.9-22.6-.4-1.5-3.8-5.8-7.6-9.5-4.3-4.3-8.3-9.5-10.5-13.8-2.6-4.8-4.6-7.3-6.8-8.4-3.3-1.7-22.2-4.3-38.9-5.4l-9.7-.6-.6 3.7c-1.1 5.8.3 10.4 4.6 15.1 4.8 5.2 7.9 6.8 19 9.6 4.6 1.2 8.9 2.7 9.5 3.3.7.6 1.5 3.1 1.8 5.6l.6 4.5-5.1 2.9c-6.7 3.7-11.1 7.7-13.4 12-2.1 3.9-4.4 5.3-5.6 3.4-1.6-2.6 6-12.5 13.8-17.9 4.3-3 5.3-5.1 3.2-6.5-1.5-.9-14.9-4.4-17.1-4.4-1 0-1.9 1.1-2.3 2.9-.8 4-7.5 9.8-12 10.7-8.5 1.6-16-1.7-19.4-8.4-1.2-2.3-2.7-9.9-4-20.2-2.5-19-5.1-32.2-12.6-65-6.3-26.9-7.7-31.2-11.2-34-2.8-2.2-10.2-2.6-14-.8z"/><path d="M93.3 126c-1.8 1.1-3.5 3.1-3.9 4.6-1 3.9.4 19.7 1.9 21.1.7.7 6.2 1.8 12.2 2.4 6.1.6 11.5 1.2 12 1.2.6.1.9-.5.8-1.3-2.8-21.9-3.6-24.7-7.8-28.2-2.8-2.5-11.1-2.4-15.2.2zM68.8 134.8c-4 .5-8.5 5.2-9.3 9.6-.6 2.8-.1 5.7 2.1 11.9 2.3 6.9 2.9 10.4 3.4 22l.5 13.9 3.3 2.9c5.9 5.3 16.9 3.3 19.8-3.6 2.1-5.1 1.8-6.3-2.9-11.5-4.3-4.8-6.7-10.3-6.7-15.4 0-3.6 2.4-9.2 4.5-10.4 1.5-.8 1.7-1.9 1.1-7.6-.7-6.4-1.9-8.7-5.4-10.5-2.3-1.1-7.2-1.8-10.4-1.3z"/></g></svg>
