<svg xmlns="http://www.w3.org/2000/svg" xmlns:xlink="http://www.w3.org/1999/xlink" viewBox="0 0 610.945 184.052"><defs><linearGradient id="b" x1="10892.748" y1="4416.028" x2="11088.55" y2="4416.028" gradientTransform="matrix(.1667 -.0963 .0655 .1134 -2100.767 692.538)" gradientUnits="userSpaceOnUse"><stop offset=".93" stop-color="#fff"/><stop offset=".956" stop-color="#fdfdfd"/><stop offset=".966" stop-color="#f6f6f6"/><stop offset=".972" stop-color="#ebebeb"/><stop offset=".978" stop-color="#dadada"/><stop offset=".982" stop-color="#c4c4c4"/><stop offset=".986" stop-color="#a8a8a8"/><stop offset=".99" stop-color="#888"/><stop offset=".994" stop-color="#626262"/><stop offset=".997" stop-color="#373737"/><stop offset="1" stop-color="#090909"/><stop offset="1"/></linearGradient><linearGradient id="c" x1="7892.268" y1="4356.942" x2="8088.071" y2="4356.942" gradientTransform="matrix(.1853 -.1501 .1616 .1995 -2158.96 475.89)" gradientUnits="userSpaceOnUse"><stop offset=".9" stop-color="#fff"/><stop offset=".937" stop-color="#fdfdfd"/><stop offset=".951" stop-color="#f6f6f6"/><stop offset=".96" stop-color="#ebebeb"/><stop offset=".968" stop-color="#dadada"/><stop offset=".975" stop-color="#c4c4c4"/><stop offset=".981" stop-color="#a8a8a8"/><stop offset=".986" stop-color="#888"/><stop offset=".991" stop-color="#626262"/><stop offset=".995" stop-color="#373737"/><stop offset=".999" stop-color="#090909"/><stop offset="1"/></linearGradient><linearGradient id="a" x1="4044.637" y1="3063.96" x2="4240.44" y2="3063.96" gradientTransform="matrix(.1957 -.2693 .6031 .4382 -2620.341 -66.585)" gradientUnits="userSpaceOnUse"><stop offset=".317" stop-color="#fff"/><stop offset=".571" stop-color="#fdfdfd"/><stop offset=".663" stop-color="#f6f6f6"/><stop offset=".728" stop-color="#ebebeb"/><stop offset=".781" stop-color="#dadada"/><stop offset=".827" stop-color="#c4c4c4"/><stop offset=".867" stop-color="#a8a8a8"/><stop offset=".903" stop-color="#888"/><stop offset=".936" stop-color="#626262"/><stop offset=".967" stop-color="#373737"/><stop offset=".995" stop-color="#090909"/><stop offset="1"/></linearGradient><linearGradient id="m" x1="3555.626" y1="3359.466" x2="3751.429" y2="3359.466" gradientTransform="matrix(.1665 -.2883 .6456 .3727 -2734.124 -39.624)" xlink:href="#a"/><linearGradient id="n" x1="3000.126" y1="3630.527" x2="3195.929" y2="3630.527" gradientTransform="matrix(.1354 -.3041 .681 .3032 -2844.465 -.917)" xlink:href="#a"/><linearGradient id="o" x1="2384.225" y1="3874.172" x2="2580.028" y2="3874.172" gradientTransform="matrix(.1029 -.3166 .709 .2304 -2950.155 49.112)" xlink:href="#a"/><linearGradient id="p" x1="1714.669" y1="4087.731" x2="1910.472" y2="4087.731" gradientTransform="matrix(.0692 -.3256 .7292 .155 -3050.038 109.914)" xlink:href="#a"/><linearGradient id="r" x1="998.795" y1="4268.865" x2="1194.598" y2="4268.865" gradientTransform="matrix(.0348 -.3311 .7414 .0779 -3143.017 180.824)" xlink:href="#a"/><linearGradient id="s" x1="221.968" y1="4415.589" x2="440.246" y2="4415.589" gradientTransform="matrix(0 -.3329 .7454 0 -3228.075 261.064)" xlink:href="#a"/><linearGradient id="w" x1="107.095" y1="702.708" x2="302.898" y2="702.708" gradientTransform="matrix(.9781 -.2079 .1951 .9177 -288.134 -397.11)" gradientUnits="userSpaceOnUse"><stop offset="0"/><stop offset="1" stop-color="#fff"/></linearGradient><linearGradient id="d" x1="1451.748" y1="1775.208" x2="1647.551" y2="1775.208" gradientTransform="matrix(.5875 -.2994 .2006 .3938 -1197.174 -91.598)" gradientUnits="userSpaceOnUse"><stop offset="0" stop-color="#fff"/><stop offset=".156" stop-color="#c2c2c2"/><stop offset=".324" stop-color="#888"/><stop offset=".487" stop-color="#575757"/><stop offset=".639" stop-color="#313131"/><stop offset=".78" stop-color="#161616"/><stop offset=".905" stop-color="#060606"/><stop offset="1"/></linearGradient><linearGradient id="e" x1="1464.162" y1="1564.035" x2="1659.965" y2="1564.035" gradientTransform="matrix(.5976 -.2787 .1868 .4005 -1158.74 -48.833)" gradientUnits="userSpaceOnUse"><stop offset="0" stop-color="#fff"/><stop offset=".063" stop-color="#dadada"/><stop offset=".16" stop-color="#a7a7a7"/><stop offset=".262" stop-color="#7b7b7b"/><stop offset=".367" stop-color="#555"/><stop offset=".475" stop-color="#363636"/><stop offset=".588" stop-color="#1e1e1e"/><stop offset=".707" stop-color="#0d0d0d"/><stop offset=".838" stop-color="#030303"/><stop offset="1"/></linearGradient><linearGradient id="f" x1="-848.652" y1="4526.297" x2="-652.85" y2="4526.297" gradientTransform="matrix(-.0412 -.3924 .7414 -.0779 -3319.226 207.557)" xlink:href="#a"/><linearGradient id="g" x1="5333.386" y1="1340.371" x2="5529.188" y2="1340.371" gradientTransform="matrix(.3041 -.1354 .3032 .681 -2043.986 -19.509)" xlink:href="#a"/><linearGradient id="h" x1="5240.743" y1="1705.479" x2="5436.546" y2="1705.479" gradientTransform="matrix(.2883 -.1665 .3727 .6456 -2156.006 -53.051)" xlink:href="#a"/><linearGradient id="j" x1="5063.149" y1="2064.263" x2="5258.952" y2="2064.263" gradientTransform="matrix(.2693 -.1957 .4382 .6031 -2270.917 -74.7)" xlink:href="#a"/><linearGradient id="k" x1="4802.551" y1="2412.791" x2="4998.354" y2="2412.791" gradientTransform="matrix(.2474 -.2228 .4988 .554 -2387.462 -84.22)" xlink:href="#a"/><linearGradient id="l" x1="4461.802" y1="2747.244" x2="4657.605" y2="2747.244" gradientTransform="matrix(.2228 -.2474 .554 .4988 -2504.364 -81.505)" xlink:href="#a"/><linearGradient id="z" x1="10990.649" y1="4514.711" x2="10990.649" y2="4317.346" gradientTransform="matrix(.1667 -.0963 .0655 .1134 -2100.767 692.538)" gradientUnits="userSpaceOnUse"><stop offset=".7" stop-opacity="0"/><stop offset="1" stop-opacity=".6"/></linearGradient><linearGradient id="B" x1="7990.169" y1="4455.625" x2="7990.169" y2="4258.261" gradientTransform="matrix(.1853 -.1501 .1616 .1995 -2158.96 475.89)" gradientUnits="userSpaceOnUse"><stop offset=".7" stop-opacity="0"/><stop offset="1" stop-opacity=".7"/></linearGradient><linearGradient id="D" x1="1549.65" y1="1873.889" x2="1549.65" y2="1676.525" gradientTransform="matrix(.5875 -.2994 .2006 .3938 -1197.174 -91.598)" gradientUnits="userSpaceOnUse"><stop offset=".5" stop-opacity=".4"/><stop offset=".929" stop-opacity=".213"/><stop offset="1" stop-opacity="0"/></linearGradient><linearGradient id="F" x1="1562.064" y1="1662.716" x2="1562.064" y2="1465.352" gradientTransform="matrix(.5976 -.2787 .1868 .4005 -1158.74 -48.833)" gradientUnits="userSpaceOnUse"><stop offset=".85" stop-opacity=".2"/><stop offset=".979" stop-opacity=".106"/><stop offset="1" stop-opacity="0"/></linearGradient><linearGradient id="t" x1="-750.751" y1="4624.979" x2="-750.751" y2="4427.615" gradientTransform="matrix(-.0412 -.3924 .7414 -.0779 -3319.226 207.557)" gradientUnits="userSpaceOnUse"><stop offset="0" stop-opacity="0"/><stop offset="1" stop-opacity=".2"/></linearGradient><linearGradient id="i" x1="5431.287" y1="1439.054" x2="5431.287" y2="1241.689" gradientTransform="matrix(.3041 -.1354 .3032 .681 -2043.986 -19.509)" gradientUnits="userSpaceOnUse"><stop offset="0" stop-opacity="0"/><stop offset="1" stop-opacity=".7"/></linearGradient><linearGradient id="J" x1="5338.644" y1="1804.162" x2="5338.644" y2="1606.798" gradientTransform="matrix(.2883 -.1665 .3727 .6456 -2156.006 -53.051)" xlink:href="#i"/><linearGradient id="L" x1="5161.051" y1="2162.945" x2="5161.051" y2="1965.581" gradientTransform="matrix(.2693 -.1957 .4382 .6031 -2270.917 -74.7)" xlink:href="#i"/><linearGradient id="N" x1="4900.452" y1="2511.473" x2="4900.452" y2="2314.109" gradientTransform="matrix(.2474 -.2228 .4988 .554 -2387.462 -84.22)" xlink:href="#i"/><linearGradient id="P" x1="4559.703" y1="2845.927" x2="4559.703" y2="2648.563" gradientTransform="matrix(.2228 -.2474 .554 .4988 -2504.364 -81.505)" xlink:href="#i"/><linearGradient id="R" x1="4142.538" y1="3162.642" x2="4142.538" y2="2965.278" gradientTransform="matrix(.1957 -.2693 .6031 .4382 -2620.341 -66.585)" xlink:href="#i"/><linearGradient id="T" x1="3653.527" y1="3458.149" x2="3653.527" y2="3260.785" gradientTransform="matrix(.1665 -.2883 .6456 .3727 -2734.124 -39.624)" xlink:href="#i"/><linearGradient id="V" x1="3098.028" y1="3729.209" x2="3098.028" y2="3531.845" gradientTransform="matrix(.1354 -.3041 .681 .3032 -2844.465 -.917)" xlink:href="#i"/><linearGradient id="q" x1="2482.126" y1="3972.854" x2="2482.126" y2="3775.49" gradientTransform="matrix(.1029 -.3166 .709 .2304 -2950.155 49.112)" gradientUnits="userSpaceOnUse"><stop offset="0" stop-opacity="0"/><stop offset="1" stop-opacity=".3"/></linearGradient><linearGradient id="Y" x1="1812.57" y1="4186.413" x2="1812.57" y2="3989.049" gradientTransform="matrix(.0692 -.3256 .7292 .155 -3050.038 109.914)" xlink:href="#q"/><linearGradient id="aa" x1="1096.696" y1="4367.547" x2="1096.696" y2="4170.183" gradientTransform="matrix(.0348 -.3311 .7414 .0779 -3143.017 180.824)" xlink:href="#q"/><linearGradient id="ac" x1="331.106" y1="4514.272" x2="331.106" y2="4316.908" gradientTransform="matrix(0 -.3329 .7454 0 -3228.075 261.064)" xlink:href="#t"/><linearGradient id="v" x1="229.689" y1="1000.239" x2="229.689" y2="802.875" gradientTransform="matrix(.9511 -.309 .1691 .5204 -334.886 -254.902)" gradientUnits="userSpaceOnUse"><stop offset="0" stop-opacity=".6"/><stop offset="1" stop-opacity="0"/></linearGradient><linearGradient id="u" x1="134.725" y1="1956.447" x2="134.725" y2="1759.083" gradientTransform="matrix(.809 -.5878 .5515 .7591 -1048.893 -1141.441)" gradientUnits="userSpaceOnUse"><stop offset="0" stop-opacity=".5"/><stop offset="1" stop-opacity="0"/></linearGradient><linearGradient id="ad" x1="195.26" y1="1672.407" x2="195.26" y2="1475.042" gradientTransform="matrix(.866 -.5 .4691 .8125 -830.863 -986.295)" xlink:href="#u"/><linearGradient id="ae" x1="227.606" y1="1383.178" x2="227.606" y2="1185.814" gradientTransform="rotate(-24 -2218.636 1077.931) scale(1 .9382)" xlink:href="#v"/><linearGradient id="ag" x1="204.996" y1="801.391" x2="204.996" y2="604.026" gradientTransform="matrix(.9781 -.2079 .1951 .9177 -288.134 -397.11)" xlink:href="#v"/><linearGradient id="ah" x1="233.042" y1="1092.392" x2="233.042" y2="895.028" gradientTransform="matrix(.9511 -.309 .2899 .8923 -450.924 -612.03)" xlink:href="#v"/><mask id="y" x="-2.057" y="114.573" width="45.564" height="41.222" maskUnits="userSpaceOnUse"><path style="fill:url(#b)" d="m30.59 114.573-16.323 9.424-16.323 9.424 12.917 22.374 32.646-18.849-12.917-22.373z"/></mask><mask id="A" x="-8.2" y="111.488" width="68.177" height="68.763" maskUnits="userSpaceOnUse"><path style="fill:url(#c)" d="M28.092 111.488 9.946 126.182-8.2 140.876l31.886 39.376 36.291-29.389-31.885-39.375z"/></mask><mask id="C" x="-7.859" y="75.35" width="154.638" height="136.332" maskUnits="userSpaceOnUse"><path style="fill:url(#d)" d="m107.181 75.35-57.52 29.308-57.52 29.308 39.598 77.715 115.04-58.615-39.598-77.716z"/></mask><mask id="E" x="-10.045" y="75.494" width="153.877" height="133.616" maskUnits="userSpaceOnUse"><path style="fill:url(#e)" d="m106.971 75.494-58.508 27.283-58.508 27.282 36.862 79.051 117.016-54.566-36.862-79.05z"/></mask><mask id="G" x="-9.816" y="103.37" width="154.395" height="92.216" maskUnits="userSpaceOnUse"><path style="fill:url(#f)" d="m-9.816 118.748 4.038 38.419 4.038 38.419 146.319-15.379-8.076-76.837-146.319 15.378z"/></mask><mask id="H" x="-45.496" y="77.407" width="119.389" height="160.918" maskUnits="userSpaceOnUse"><path style="fill:url(#g)" d="m14.052 77.407-29.774 13.256-29.774 13.256 59.841 134.406 59.548-26.513L14.052 77.407z"/></mask><mask id="I" x="-46.186" y="79.337" width="130.013" height="160.006" maskUnits="userSpaceOnUse"><path style="fill:url(#h)" d="M10.265 79.337-17.96 95.632l-28.226 16.296 73.563 127.414 56.451-32.591L10.265 79.337z"/></mask><mask id="K" x="-46.034" y="81.651" width="139.213" height="157.341" maskUnits="userSpaceOnUse"><path style="fill:url(#j)" d="m6.7 81.651-26.367 19.158-26.367 19.157 86.478 119.026 52.734-38.314L6.7 81.651z"/></mask><mask id="M" x="-45.044" y="84.326" width="146.887" height="152.952" maskUnits="userSpaceOnUse"><path style="fill:url(#k)" d="m3.397 84.326-24.22 21.809-24.221 21.808 98.446 109.335 48.441-43.616L3.397 84.326z"/></mask><mask id="O" x="-43.225" y="87.332" width="152.952" height="146.887" maskUnits="userSpaceOnUse"><path style="fill:url(#l)" d="m.392 87.332-21.809 24.22-21.808 24.221L66.11 234.219l43.617-48.441L.392 87.332z"/></mask><mask id="Q" x="-40.597" y="90.635" width="157.341" height="139.213" maskUnits="userSpaceOnUse"><path style="fill:url(#a)" d="m-2.283 90.635-19.157 26.368-19.157 26.367 119.026 86.478 38.314-52.735L-2.283 90.635z"/></mask><mask id="S" x="-37.19" y="94.2" width="160.006" height="130.013" maskUnits="userSpaceOnUse"><path style="fill:url(#m)" d="m-4.598 94.2-16.296 28.225-16.296 28.226 127.414 73.562 32.592-56.451L-4.598 94.2z"/></mask><mask id="U" x="-33.041" y="97.987" width="160.918" height="119.389" maskUnits="userSpaceOnUse"><path style="fill:url(#n)" d="m-6.528 97.987-13.256 29.774-13.257 29.774 134.406 59.842 26.512-59.549L-6.528 97.987z"/></mask><mask id="W" x="-28.194" y="101.955" width="160.067" height="107.457" maskUnits="userSpaceOnUse"><path style="fill:url(#o)" d="m-8.051 101.955-10.072 30.997-10.071 30.997 139.924 45.464 20.143-61.994-139.924-45.464z"/></mask><mask id="X" x="-22.704" y="106.061" width="157.463" height="94.348" maskUnits="userSpaceOnUse"><path style="fill:url(#p)" d="m-9.151 106.061-6.777 31.88-6.776 31.879 143.91 30.589 13.553-63.759-143.91-30.589z"/></mask><mask id="Z" x="-16.63" y="110.259" width="153.133" height="80.205" maskUnits="userSpaceOnUse"><path style="fill:url(#r)" d="m-9.816 110.259-3.407 32.413-3.407 32.414 146.319 15.378 6.814-64.826-146.319-15.379z"/></mask><mask id="ab" x="-10.039" y="114.504" width="147.125" height="72.666" maskUnits="userSpaceOnUse"><path style="fill:url(#s)" d="M-10.039 114.504v72.666h147.125v-72.666H-10.039z"/></mask><mask id="af" x="-65.551" y="94.254" width="230.024" height="221.839" maskUnits="userSpaceOnUse"><path style="fill:url(#w)" d="m125.973 94.254-95.762 20.355-95.762 20.355 38.5 181.129 191.524-40.71-38.5-181.129z"/></mask><clipPath id="x"><path d="M62.487 184.07a61.597 61.597 0 0 1-60.206-48.632l91.121-66.203A61.577 61.577 0 0 1 62.487 184.07Z" style="fill:none"/></clipPath></defs><path d="M179.9 114.431h16.22q1.013 10.012 11.976 10.011a16.898 16.898 0 0 0 7.983-1.74 5.833 5.833 0 0 0 3.295-5.54 5.606 5.606 0 0 0-2.726-5.222 24.053 24.053 0 0 0-7.162-2.564l-11.399-2.481q-16.604-3.612-16.603-18.948a18.204 18.204 0 0 1 6.78-14.383 24.361 24.361 0 0 1 8.047-4.277 34.873 34.873 0 0 1 10.834-1.552q11.278 0 18.502 5.449t7.73 16.473h-16.22q-.254-4.688-2.979-7.001a10.495 10.495 0 0 0-7.033-2.313 11.374 11.374 0 0 0-6.81 1.896 6.995 6.995 0 0 0-.686 10.31 12.023 12.023 0 0 0 5.093 2.36l13.126 2.813a34.175 34.175 0 0 1 6.943 2.174 19.253 19.253 0 0 1 5.664 3.704 16.68 16.68 0 0 1 3.743 5.388 18.275 18.275 0 0 1 1.376 7.408 18 18 0 0 1-1.837 8.046 19.119 19.119 0 0 1-5.322 6.527 26.712 26.712 0 0 1-8.617 4.435 38.322 38.322 0 0 1-11.722 1.647q-13.243 0-20.466-5.86t-7.73-16.76ZM248.542 63.108V48.663h16.727v14.447Zm.253 72.36v-66.15h16.22v66.15ZM282.158 157.517V69.319h16.22v8.933a22.813 22.813 0 0 1 7.888-7.73 22.33 22.33 0 0 1 11.437-2.788 23.512 23.512 0 0 1 11.531 2.725 23.815 23.815 0 0 1 8.174 7.382 32.757 32.757 0 0 1 4.784 11.024 57.027 57.027 0 0 1 1.552 13.528 56.4 56.4 0 0 1-1.552 13.559 33.16 33.16 0 0 1-4.784 10.961 22.913 22.913 0 0 1-19.705 10.138 22.376 22.376 0 0 1-11.405-2.788 22.71 22.71 0 0 1-7.92-7.73v30.984Zm16.22-50.182q0 7.793 3.548 12.45t11.34 4.657q6.337 0 9.98-3.453a12.184 12.184 0 0 0 3.644-9.282V93.016a12.139 12.139 0 0 0-3.61-9.25q-3.613-3.423-10.013-3.422-7.792 0-11.34 4.656t-3.549 12.45ZM355.075 102.393a55.981 55.981 0 0 1 1.58-13.527 33.269 33.269 0 0 1 4.808-11.025 23.8 23.8 0 0 1 8.162-7.382 23.44 23.44 0 0 1 11.513-2.724 22.46 22.46 0 0 1 11.428 2.788 22.758 22.758 0 0 1 7.939 7.73v-8.934h16.22v65.135a25.754 25.754 0 0 1-2.474 11.658 23.526 23.526 0 0 1-6.628 8.174 28.905 28.905 0 0 1-9.546 4.847 38.91 38.91 0 0 1-11.226 1.615 52.316 52.316 0 0 1-10.89-1.077 27.079 27.079 0 0 1-8.958-3.548 19.82 19.82 0 0 1-6.332-6.431 25.075 25.075 0 0 1-3.26-9.663h16.169a9.708 9.708 0 0 0 3.524 6.02q2.762 2.153 8.479 2.154a25.9 25.9 0 0 0 5.587-.602 11.779 11.779 0 0 0 4.793-2.218 11.179 11.179 0 0 0 3.303-4.467 18.407 18.407 0 0 0 1.238-7.286v-7.097a23.242 23.242 0 0 1-7.78 7.73 21.727 21.727 0 0 1-11.333 2.788 23.445 23.445 0 0 1-11.513-2.724 24.23 24.23 0 0 1-8.224-7.414 33.81 33.81 0 0 1-4.934-10.993 53.4 53.4 0 0 1-1.645-13.527Zm16.855 9.314a12.211 12.211 0 0 0 3.683 9.156q3.682 3.58 9.97 3.58 7.809 0 11.366-4.689 3.554-4.688 3.556-12.418V97.45q0-7.793-3.556-12.45-3.558-4.658-11.366-4.657-6.353 0-10.003 3.548a12.165 12.165 0 0 0-3.65 9.124ZM430.189 116.649a19.373 19.373 0 0 1 5.575-13.872Q441.341 96.95 451.86 96l18.31-1.526v-4.309q0-5.194-2.788-7.508a11.556 11.556 0 0 0-7.603-2.313 12.876 12.876 0 0 0-8.047 2.377 8.201 8.201 0 0 0-3.105 6.937h-16.22a20.125 20.125 0 0 1 8.237-16.346 26.643 26.643 0 0 1 8.743-4.15 40.615 40.615 0 0 1 11.026-1.426q11.91 0 18.817 5.766t6.907 16.917v32.44h11.151v12.61h-25.534l-.127-10.265h-.57a23.215 23.215 0 0 1-7.571 8.649q-4.721 3.199-12.388 3.2a22.08 22.08 0 0 1-8.332-1.52 20.697 20.697 0 0 1-6.621-4.245 18.954 18.954 0 0 1-4.403-6.4 20.954 20.954 0 0 1-1.552-8.238Zm16.853 1.85a4.787 4.787 0 0 0 2.725 4.457 14.614 14.614 0 0 0 7.033 1.487 11.952 11.952 0 0 0 9.789-4.39 16.31 16.31 0 0 0 3.58-10.647v-2.591l-19.449 1.694q-3.614.38-3.678 4.299ZM497.726 81.864V69.32h13.116v-20.66h16.22v20.66h16.474v12.545h-16.474v40.995h16.474v12.608h-32.694V81.864ZM551.5 102.266a44.042 44.042 0 0 1 2.151-14.16 32.428 32.428 0 0 1 6.045-10.9 26.587 26.587 0 0 1 9.4-7 29.498 29.498 0 0 1 12.214-2.471 30.071 30.071 0 0 1 12.21 2.408 27.915 27.915 0 0 1 9.387 6.62 28.64 28.64 0 0 1 5.964 10.043 37.587 37.587 0 0 1 2.06 12.61v8.173h-42.578v4.371q0 5.956 3.906 9.219a13.954 13.954 0 0 0 9.243 3.263 13.185 13.185 0 0 0 8.7-2.788 11.62 11.62 0 0 0 4.002-7.856h16.22q-1.585 11.025-9.292 17.139-7.709 6.115-19.822 6.114a29.876 29.876 0 0 1-12.565-2.535 26.387 26.387 0 0 1-9.366-7.096 31.698 31.698 0 0 1-5.854-10.96 46.877 46.877 0 0 1-2.025-14.194Zm16.853-7.286h25.978v-2.345a11.555 11.555 0 0 0-3.683-8.87 14.364 14.364 0 0 0-18.61 0 11.552 11.552 0 0 0-3.685 8.87Z"/><g style="clip-path:url(#x)"><g style="mask:url(#y)"><path style="fill:url(#z)" d="m30.59 114.573-16.323 9.424-16.323 9.424 12.917 22.374 32.646-18.849-12.917-22.373z"/></g><g style="mask:url(#A)"><path style="fill:url(#B)" d="M28.092 111.488 9.946 126.182-8.2 140.876l31.886 39.376 36.291-29.389-31.885-39.375z"/></g><g style="mask:url(#C)"><path style="fill:url(#D)" d="m107.181 75.35-57.52 29.308-57.52 29.308 39.598 77.715 115.04-58.615-39.598-77.716z"/></g><g style="mask:url(#E)"><path style="fill:url(#F)" d="m106.971 75.494-58.508 27.283-58.508 27.282 36.862 79.051 117.016-54.566-36.862-79.05z"/></g><g style="mask:url(#G)"><path style="fill:url(#t)" d="m-9.816 118.748 4.038 38.419 4.038 38.419 146.319-15.379-8.076-76.837-105.934 11.134-40.385 4.244z"/></g><g style="mask:url(#H)"><path style="fill:url(#i)" d="m14.052 77.407-29.774 13.256-29.774 13.256 59.841 134.406 59.548-26.513-43.324-97.308-16.517-37.097z"/></g><g style="mask:url(#I)"><path style="fill:url(#J)" d="M10.265 79.337-17.96 95.632l-28.226 16.296 73.563 127.414 56.451-32.591-53.259-92.247-20.304-35.167z"/></g><g style="mask:url(#K)"><path style="fill:url(#L)" d="m6.7 81.651-26.367 19.158-26.367 19.157 86.478 119.026 52.734-38.314-62.609-86.174L6.7 81.651z"/></g><g style="mask:url(#M)"><path style="fill:url(#N)" d="m3.397 84.326-24.22 21.809-24.221 21.808 98.446 109.335 48.441-43.616-71.274-79.158L3.397 84.326z"/></g><g style="mask:url(#O)"><path style="fill:url(#P)" d="m.392 87.332-21.809 24.22-21.808 24.221L66.11 234.219l43.617-48.441-79.158-71.274L.392 87.332z"/></g><g style="mask:url(#Q)"><path style="fill:url(#R)" d="m-2.283 90.635-19.157 26.368-19.157 26.367 119.026 86.478 38.314-52.735-86.174-62.609-32.852-23.869z"/></g><g style="mask:url(#S)"><path style="fill:url(#T)" d="m-4.598 94.2-16.296 28.225-16.296 28.226 127.414 73.562 32.592-56.451-92.247-53.258L-4.598 94.2z"/></g><g style="mask:url(#U)"><path style="fill:url(#V)" d="m-6.528 97.987-13.256 29.774-13.257 29.774 134.406 59.842 26.512-59.549-97.308-43.324-37.097-16.517z"/></g><g style="mask:url(#W)"><path style="fill:url(#q)" d="m-8.051 101.955-10.072 30.997-10.071 30.997 139.924 45.464 20.143-61.994-101.304-32.915-38.62-12.549z"/></g><g style="mask:url(#X)"><path style="fill:url(#Y)" d="m-9.151 106.061-6.777 31.88-6.776 31.879 143.91 30.589 13.553-63.759-104.19-22.146-39.72-8.443z"/></g><g style="mask:url(#Z)"><path style="fill:url(#aa)" d="m-9.816 110.259-3.407 32.413-3.407 32.414 146.319 15.378 6.814-64.826-105.934-11.134-40.385-4.245z"/></g><g style="mask:url(#ab)"><path style="fill:url(#ac)" d="M-10.039 114.504v72.666h147.125v-72.666H-10.039z"/></g><path style="fill:url(#v)" d="m112.422 61.666-93.11 30.253-93.11 30.254 33.371 102.704 186.219-60.507-33.37-102.704z"/><path style="fill:url(#u)" d="m109.415 57.064-79.204 57.545-79.204 57.545L59.85 321.964l158.408-115.09-108.843-149.81z"/><path style="fill:url(#ad)" d="m114.996 65.658-84.785 48.951-84.785 48.951 92.587 160.366 169.571-97.901-92.588-160.367z"/><path style="fill:url(#ae)" d="m119.648 74.789-89.437 39.82-89.438 39.82 75.318 169.166 178.875-79.64-75.318-169.166z"/><g style="mask:url(#af)"><path style="fill:url(#ag)" d="m125.973 94.254-95.762 20.355-95.762 20.355 38.5 181.129 191.524-40.71-38.5-181.129z"/></g><path style="fill:url(#ah)" d="m123.321 84.356-93.11 30.253-93.11 30.253 57.222 176.113 186.22-60.507-57.222-176.112z"/></g><path d="M61.579-.018a61.58 61.58 0 0 0-30.915 114.835l61.83-44.922 29.291-21.282A61.597 61.597 0 0 0 61.58-.017Z"/></svg>
