<svg xmlns="http://www.w3.org/2000/svg" version="1.1" id="Layer_1" x="0" y="0" viewBox="0 0 165.6 29.1" style="enable-background:new 0 0 165.6 29.1" xml:space="preserve"><style>.st0{fill:#000}</style><path class="st0" d="M7.3.1v1.7H4.7v8.4h-2V1.9H0V.1h7.3zM11.3 10.2 15.7.1H17l4.4 10.1h-2l-1-2.2h-4.1l-1 2.2h-2zm3.7-4h2.6l-1.3-3-1.3 3zM28.9 5.3v5h-2V.1h2v4l3.9-4h2.6l-4.5 4.6 5 5.5h-2.5l-4.5-4.9zM43.4 1.9V4h3.1v1.7h-3.1v2.8h4.3v1.7h-6.3V.1h6.1v1.7h-4.1zM67.2 6.2l3.7-6h1.4v10h-2V4.6l-2.4 4h-1.3l-2.5-4v5.6h-2V.1h1.4l3.7 6.1zM80.9 1.9V4H84v1.7h-3.1v2.8h4.3v1.7H79V.1h6.1v1.7h-4.2zM96.4 6.2l3.7-6h1.4v10h-2V4.6l-2.4 4h-1.3l-2.4-4v5.6h-2V.1h1.4l3.6 6.1zM112.8 0c2.8-.1 5.2 2.1 5.3 4.9v.3c-.1 2.9-2.6 5.2-5.5 5.1-2.8-.1-5-2.3-5.1-5.1 0-2.8 2.2-5.2 5-5.2h.3zm0 8.6c1.9 0 3.4-1.5 3.4-3.4v-.1c.1-1.8-1.3-3.4-3.2-3.5-1.8-.1-3.4 1.3-3.5 3.2v.4c-.1 1.8 1.4 3.4 3.3 3.4-.1 0 0 0 0 0zM126.1 5.8v4.5h-2V.1h3.7c.8-.1 1.6.2 2.2.8 1.1 1.1 1.2 2.8.2 4 0 .1-.1.1-.2.2-.3.3-.6.5-1 .6l3.8 4.6h-2.4l-3.6-4.5h-.7zm1.6-1.8c.4.1.7-.1 1-.3.2-.2.3-.4.3-.7 0-.3-.1-.6-.3-.8-.3-.3-.6-.4-1-.3h-1.6V4h1.6zM138.2.1h2v10.1h-2V.1zM148.8 1.9V4h3.2v1.7h-3.1v2.8h4.3v1.7h-6.3V.1h6.1v1.7h-4.2zM159.7 7.5c.6.7 1.5 1.1 2.4 1.1.7.1 1.4-.5 1.5-1.2v-.1c0-1.3-1.9-1.5-3.3-2.2-.9-.4-1.4-1.3-1.4-2.3 0-1.8 1.7-2.8 3.4-2.8 1.1 0 2.1.3 3 1l-1 1.4c-.5-.4-1.1-.7-1.8-.7-.8 0-1.6.3-1.6 1.1 0 1.6 4.7 1.1 4.7 4.5-.1 1.8-1.7 3.1-3.4 3-1.4 0-2.7-.6-3.7-1.5l1.2-1.3z"/><g><path class="st0" d="M41.7 24.5c-.1-.3-.2-.5-.3-.8-.1-.2-.2-.3-.8-.3h-.9v4.5c0 .7.1.8 1 .9v.2H38v-.3c.9-.1.9-.1.9-.9v-4.5h-.8c-.5 0-.7 0-.8.3-.1.2-.2.5-.3.7h-.3c0-.6.1-1.1.1-1.6h.2c.1.2.2.2.5.2h3.7c.2 0 .4 0 .5-.2h.2c0 .4 0 1.1.1 1.6l-.3.2zM50.1 29.1h-.3c-.6 0-1.1-.3-1.5-.8-.3-.5-.7-1-1-1.5-.2-.3-.3-.4-.8-.4h-.3v1.4c0 .8.1.8.8.9v.3h-2.4v-.3c.8-.1.8-.1.8-.9v-3.6c0-.8-.1-.8-.8-.9V23H47c.5 0 1 .1 1.5.3.4.3.7.7.6 1.2 0 .7-.5 1.4-1.2 1.6.2.3.6.9.8 1.3.2.3.5.6.7.9.2.2.4.4.7.4v.4zm-3.4-3c.4 0 .7-.1 1-.3.4-.3.5-.7.5-1.1.1-.7-.4-1.3-1.1-1.3h-.2c-.2 0-.3 0-.5.1-.1.1-.1.1-.1.4v2.3l.4-.1zM55.9 29v-.3c.6-.1.7-.2.5-.5s-.3-.8-.5-1.4h-2c-.2.4-.3.8-.4 1.1-.2.6-.1.7.7.8v.3H52v-.3c.6-.1.7-.1 1.1-1L55 23l.3-.1 1.8 4.9c.3.8.4.9 1 1v.2h-2.2zm-.9-4.9-.9 2.4h1.7l-.8-2.4zM65.4 23.3c-.6.1-.8.2-1.1 1-.2.6-1.5 3.7-2 4.8H62c-.5-1.5-1.3-3.6-1.9-5-.3-.7-.4-.8-1-.8V23h2.3v.3c-.7.1-.7.2-.6.5.2.7.9 2.5 1.5 4 .5-1.2 1.1-2.7 1.5-3.8.2-.5.1-.6-.7-.7V23h2.1l.2.3zM72.5 27.5c-.1.2-.3 1.2-.4 1.5h-4.5v-.3c.9-.1.9-.1.9-.9v-3.6c0-.8-.1-.9-.8-.9V23h4.1c0 .2 0 .9.1 1.4h-.3c-.1-.2-.2-.5-.3-.7-.1-.3-.4-.4-.9-.4h-.9c-.3 0-.3 0-.3.3v2h1c.7 0 .7-.1.8-.8h.3v1.9H71c0-.6 0-.7-.7-.7h-1v1.8c0 .6.2.7.7.7h.9c.6 0 .7-.1.9-.3.2-.3.4-.5.5-.9l.2.2zM79.6 27.5c0 .3-.3 1.2-.4 1.5h-4.3v-.3c.8-.1.9-.1.9-.9v-3.6c0-.8-.1-.8-.8-.9V23h2.5v.3c-.7.1-.8.1-.8.9v3.7c0 .6.1.7.6.7h.7c.5 0 .6-.1.8-.3.2-.3.4-.6.6-1l.2.2zM88.7 23c1-.1 1.9.2 2.7.8.5.5.8 1.3.8 2 0 1-.4 1.9-1.2 2.5-.8.5-1.8.8-2.7.7h-2.2v-.3c.8-.1.8-.1.8-.9v-3.7c0-.8-.1-.8-.8-.9V23h2.6zm-1 4.8c0 .7.3.9 1 .9 1.3.1 2.5-1 2.5-2.3V26c.1-.9-.3-1.7-1.1-2.2-.5-.3-1-.4-1.6-.4-.3 0-.5 0-.7.1-.1.1-.1.2-.1.5v3.8zM99.7 27.5c-.1.2-.3 1.2-.4 1.5h-4.5v-.3c.9-.1.9-.1.9-.9v-3.6c0-.8-.1-.9-.8-.9V23H99c0 .2 0 .9.1 1.4h-.3c-.1-.2-.2-.5-.3-.7-.1-.3-.4-.4-.9-.4h-.9c-.3 0-.3 0-.3.3v2h1c.7 0 .7-.1.8-.8h.3v1.9h-.3c-.1-.7-.2-.8-.9-.8h-1v1.8c0 .6.2.7.7.7h.9c.6 0 .7-.1.9-.3.2-.3.4-.5.5-.9l.4.3zM105.4 24.5c-.2-.6-.4-1.2-1.3-1.2-.5 0-1 .3-1 .9v.1c0 .7.4 1 1.2 1.4s1.6.8 1.6 1.8c-.1 1-.9 1.8-2 1.7-.5 0-1-.1-1.4-.3-.1-.2-.2-1-.2-1.4l.3-.1c.2.6.6 1.4 1.5 1.4.5.1 1-.3 1.1-.9v-.2c0-.7-.5-1-1.2-1.4s-1.5-.8-1.5-1.8c0-.9.8-1.6 1.7-1.6h.2c.4 0 .9.1 1.3.2 0 .3.1.7.2 1.3l-.5.1zM108.6 29v-.3c.8-.1.8-.1.8-.9v-3.6c0-.8-.1-.8-.8-.9V23h2.5v.3c-.8.1-.8.1-.8.9v3.6c0 .8.1.8.8.9v.3h-2.5zM119.9 26.5c-.6.1-.6.1-.6.7V28.9c-.7.2-1.4.3-2.1.3-1.7.1-3.2-1.1-3.4-2.8v-.3c0-1.7 1.4-3.1 3.2-3.1h.3c.6 0 1.3.1 1.9.2 0 .3.1.9.1 1.5l-.3.1c-.2-.8-.5-1.1-1.1-1.3-.3-.1-.6-.1-.8-.1-1.4 0-2.3.9-2.3 2.6 0 1.5.8 2.9 2.6 2.9.3 0 .5 0 .8-.1.2-.1.3-.2.3-.6v-.7c0-.7-.1-.7-1-.8v-.3h2.4v.1zM128.9 23.3c-.6.1-.8.2-.8.6v5.2h-.4l-4-4.8v3.8c0 .5.3.6.9.7v.2h-2.2v-.3c.6 0 .8-.2.8-.6v-3.8c0-.2 0-.4-.2-.6-.2-.2-.4-.3-.8-.3V23h1.4l3.9 4.6v-3.7c0-.4-.2-.5-1-.6V23h2.3l.1.3z"/></g></svg>
