<svg version="1.1" id="Ebene_1" xmlns="http://www.w3.org/2000/svg" x="0" y="0" width="752.2" height="198" style="enable-background:new 0 0 752.2 198" xml:space="preserve"><style>.st0{fill:#0069b4}</style><path class="st0" d="M0 40h40.8v155.2h54.1V40h40.8V3.3H0zM147.1 3.3h54.4v191.9h-54.4zM341.2 14.7C331.4 6 315.6 0 287.4 0c-18.8 0-39.7 2.2-54.4 14.9-14.1 12.2-15 27.5-15 44.8v83.2c0 12.2.5 17.9 1.9 23.9 2.2 8.7 6.3 14.4 8.7 17.1 3.8 4.9 7.6 7.1 9.8 8.4 4.6 2.4 13 5.7 26.1 5.7 19.3 0 29.9-7.1 38.9-23.9V195h51.9V94.9h-68.5v34h16.6v21.7c0 10.6-4.9 14.7-16 14.7-14.4 0-14.7-10.1-14.7-15.5V51.6c0-6.5 1.1-13.3 14.7-13.3 14.7 0 16 6.3 16 13.9v17.4h51.9V53.8c0-13-1.1-19-3.8-25.3-1.1-2.4-4.4-8.7-10.3-13.8zM372.2 195.2h104.9v-37h-50.9v-42.1h47.1V79.4h-47.1V40.5h50.9V3.3H372.2zM559.2 150.6 539 3.3h-53l36.2 191.9h73.6L633.1 3.3h-53.6zM702.2.7c-27.6 0-50 22.4-50 50s22.4 50 50 50 50-22.4 50-50c0-27.5-22.4-50-50-50zm0 95c-24.8 0-45-20.2-45-45s20.2-45 45-45 45 20.2 45 45-20.2 45-45 45z"/><path class="st0" d="M673 35.9h5.8v29.7H673zM701.5 54.1l-11.8-18.2h-5.1v29.7h5.8V47.4l11.7 18.2h5.2V35.9h-5.8zM723.2 49.1V54h5.5v1.1c0 .8-.1 1.5-.3 2.1-.2.7-.5 1.3-1 1.8s-1.1.9-1.8 1.2c-.7.3-1.5.4-2.4.4-.8 0-1.5-.1-2.1-.4s-1.1-.7-1.6-1.1c-.3-.3-.5-.7-.7-1-.2-.4-.3-.9-.4-1.5-.1-.6-.2-1.4-.2-2.3s-.1-2.1-.1-3.5 0-2.6.1-3.5c0-.9.1-1.7.2-2.3.1-.6.3-1.1.4-1.5.2-.4.4-.7.7-1 .4-.5 1-.9 1.6-1.1.6-.3 1.3-.4 2.1-.4 2.9 0 4.7 1.4 5.3 4.3h5.8c-.2-1.3-.6-2.4-1.1-3.6-.5-1.1-1.3-2.1-2.2-3s-2-1.6-3.3-2.1-2.8-.8-4.5-.8-3.2.3-4.5.8-2.4 1.3-3.5 2.3c-.8.8-1.3 1.5-1.7 2.3s-.7 1.7-.9 2.6c-.2 1-.3 2-.3 3.2 0 1.1-.1 2.4-.1 3.8s0 2.7.1 3.8c0 1.1.2 2.2.3 3.1.2 1 .5 1.8.9 2.6s1 1.6 1.7 2.3c1 1 2.2 1.8 3.5 2.3s2.8.8 4.5.8c1.6 0 3.1-.2 4.4-.7 1.4-.5 2.7-1.4 3.9-2.7 1.1-1.1 1.8-2.4 2.2-3.8s.6-3.2.6-5.3v-4.3h-11.1v.2z"/></svg>
