<svg width="80" height="25" viewBox="0 0 80 25" fill="none" xmlns="http://www.w3.org/2000/svg">
    <path d="M0.679688 8.47607C0.734375 7.94482 0.761719 7.33545 0.761719 6.64795C0.761719 5.5542 0.703125 4.19482 0.585938 2.56982C2.04688 2.6167 4.51953 2.64014 8.00391 2.64014C11.4883 2.64014 13.9531 2.6167 15.3984 2.56982C15.2812 4.19482 15.2227 5.5542 15.2227 6.64795C15.2227 7.33545 15.25 7.94482 15.3047 8.47607H14.7539C14.4883 7.14014 14.1641 6.08545 13.7812 5.31201C13.3984 4.53076 12.9375 3.97217 12.3984 3.63623C11.8672 3.29248 11.2188 3.12061 10.4531 3.12061H9.90234V16.8315C9.90234 17.4956 9.96875 17.98 10.1016 18.2847C10.2422 18.5894 10.4844 18.7964 10.8281 18.9058C11.1797 19.0151 11.7266 19.0737 12.4688 19.0815V19.562C10.4531 19.5151 8.93359 19.4917 7.91016 19.4917C6.90234 19.4917 5.4375 19.5151 3.51562 19.562V19.0815C4.26562 19.0737 4.8125 19.0151 5.15625 18.9058C5.50781 18.7964 5.75 18.5894 5.88281 18.2847C6.01562 17.98 6.08203 17.4956 6.08203 16.8315V3.12061H5.55469C4.78125 3.12061 4.125 3.28857 3.58594 3.62451C3.05469 3.96045 2.59766 4.51904 2.21484 5.30029C1.83203 6.07373 1.50391 7.13232 1.23047 8.47607H0.679688ZM21.8086 6.82373C23.6367 6.82373 25.0703 7.34717 26.1094 8.39404C27.1562 9.44092 27.6797 11.1011 27.6797 13.3745C27.6797 15.6401 27.1562 17.2964 26.1094 18.3433C25.0703 19.3823 23.6367 19.9019 21.8086 19.9019C19.9805 19.9019 18.543 19.3823 17.4961 18.3433C16.4492 17.2964 15.9258 15.6401 15.9258 13.3745C15.9258 11.1089 16.4492 9.45264 17.4961 8.40576C18.543 7.35107 19.9805 6.82373 21.8086 6.82373ZM21.8086 7.29248C21.1211 7.29248 20.5703 7.79248 20.1562 8.79248C19.75 9.79248 19.5469 11.3198 19.5469 13.3745C19.5469 15.4214 19.75 16.9409 20.1562 17.9331C20.5703 18.9253 21.1211 19.4214 21.8086 19.4214C22.5039 19.4214 23.0508 18.9292 23.4492 17.9448C23.8555 16.9526 24.0586 15.4292 24.0586 13.3745C24.0586 11.312 23.8555 9.78467 23.4492 8.79248C23.0508 7.79248 22.5039 7.29248 21.8086 7.29248ZM41.1328 16.9487C41.1328 17.6909 41.2461 18.23 41.4727 18.5659C41.707 18.894 42.1055 19.0581 42.668 19.0581V19.562C42.168 19.5151 41.6719 19.4917 41.1797 19.4917C39.7734 19.4917 38.6055 19.605 37.6758 19.8315V17.6636C36.9492 19.1558 35.6602 19.9019 33.8086 19.9019C32.6133 19.9019 31.7422 19.5894 31.1953 18.9644C30.9297 18.6675 30.7383 18.2729 30.6211 17.7808C30.5117 17.2886 30.457 16.644 30.457 15.8472V9.76514C30.457 9.03076 30.3398 8.49561 30.1055 8.15967C29.8789 7.82373 29.4844 7.65576 28.9219 7.65576V7.15186C29.4297 7.19873 29.9258 7.22217 30.4102 7.22217C31.8086 7.22217 32.9766 7.11279 33.9141 6.89404V16.8315C33.9141 17.4956 34.0117 17.9995 34.207 18.3433C34.4102 18.6792 34.7891 18.8472 35.3438 18.8472C35.7656 18.8472 36.1523 18.7261 36.5039 18.4839C36.8633 18.2339 37.1484 17.8979 37.3594 17.4761C37.5703 17.0464 37.6758 16.5737 37.6758 16.0581V9.76514C37.6758 9.03076 37.5586 8.49561 37.3242 8.15967C37.0977 7.82373 36.7031 7.65576 36.1406 7.65576V7.15186C36.6484 7.19873 37.1445 7.22217 37.6289 7.22217C39.0273 7.22217 40.1953 7.11279 41.1328 6.89404V16.9487ZM48.7266 9.12061C49.0312 8.44092 49.4688 7.89014 50.0391 7.46826C50.6172 7.03857 51.2695 6.82373 51.9961 6.82373C52.4805 6.82373 52.8867 6.9292 53.2148 7.14014C53.543 7.35107 53.7852 7.62451 53.9414 7.96045C54.0977 8.28857 54.1758 8.64404 54.1758 9.02686C54.1758 9.62061 54.0039 10.105 53.6602 10.48C53.3164 10.855 52.8633 11.0425 52.3008 11.0425C51.7539 11.0425 51.3203 10.9058 51 10.6323C50.6875 10.3511 50.5312 9.97607 50.5312 9.50732C50.5312 8.7417 50.8828 8.1167 51.5859 7.63232C51.4844 7.60889 51.3867 7.59717 51.293 7.59717C51.1836 7.59717 51.0586 7.6167 50.918 7.65576C50.5117 7.71826 50.1406 7.91357 49.8047 8.2417C49.4688 8.56201 49.2031 8.94873 49.0078 9.40186C48.8203 9.85498 48.7266 10.2964 48.7266 10.7261V17.0894C48.7266 17.8315 48.9062 18.3472 49.2656 18.6362C49.625 18.9175 50.1992 19.0581 50.9883 19.0581V19.562C48.9883 19.4995 47.7148 19.4683 47.168 19.4683C46.6602 19.4683 45.5156 19.4995 43.7344 19.562V19.0581C44.1172 19.0581 44.418 19.0073 44.6367 18.9058C44.8633 18.8042 45.0234 18.6284 45.1172 18.3784C45.2188 18.1284 45.2695 17.7808 45.2695 17.3354V9.76514C45.2695 9.02295 45.1562 8.48779 44.9297 8.15967C44.7031 7.82373 44.3047 7.65576 43.7344 7.65576V7.15186C44.2422 7.19873 44.7383 7.22217 45.2227 7.22217C46.6367 7.22217 47.8047 7.11279 48.7266 6.89404V9.12061ZM62.3906 7.15186C63.1406 7.19873 63.9102 7.22217 64.6992 7.22217C65.5273 7.22217 66.1406 7.19873 66.5391 7.15186V7.63232C66.2109 7.72607 65.9102 7.9292 65.6367 8.2417C65.3711 8.54639 65.1211 9.03076 64.8867 9.69482L61.3828 19.6089C61.125 19.5854 60.8633 19.5737 60.5977 19.5737C60.3398 19.5737 60.082 19.5854 59.8242 19.6089L55.5469 9.00342C55.1875 8.10498 54.7266 7.65576 54.1641 7.65576V7.15186C55.2812 7.22998 56.4141 7.26904 57.5625 7.26904C58.5781 7.26904 59.6211 7.22998 60.6914 7.15186V7.65576C60.2461 7.65576 59.9141 7.67529 59.6953 7.71436C59.4766 7.75342 59.3203 7.8667 59.2266 8.0542C59.1406 8.2417 59.1641 8.54248 59.2969 8.95654L62.0391 16.2456L63.7617 11.4761C64.0195 10.7339 64.1484 10.0894 64.1484 9.54248C64.1484 8.35498 63.5625 7.71826 62.3906 7.63232V7.15186ZM74.6953 7.15186C75.4453 7.19873 76.2227 7.22217 77.0273 7.22217C77.832 7.22217 78.4492 7.19873 78.8789 7.15186V7.63232C78.543 7.71826 78.2383 7.91748 77.9648 8.22998C77.6992 8.54248 77.4492 9.03076 77.2148 9.69482L72.9258 21.7651C72.6055 22.6011 72.2539 23.1714 71.8711 23.4761C71.4023 23.8745 70.7031 24.0737 69.7734 24.0737C69.3594 24.0737 68.9492 24.0034 68.543 23.8628C68.1445 23.73 67.8125 23.519 67.5469 23.23C67.2891 22.9409 67.1602 22.5815 67.1602 22.1519C67.1602 21.6597 67.3359 21.2651 67.6875 20.9683C68.0391 20.6714 68.5039 20.5229 69.082 20.5229C69.6211 20.5229 70.0547 20.6558 70.3828 20.9214C70.7188 21.187 70.8867 21.5581 70.8867 22.0347C70.8867 22.3628 70.7773 22.6675 70.5586 22.9487C70.3477 23.2378 70.0547 23.4526 69.6797 23.5933C69.7969 23.6089 69.9805 23.6167 70.2305 23.6167C71.2305 23.6167 71.9609 22.9839 72.4219 21.7183L72.8086 20.5698L67.7109 9.00342C67.4609 8.44873 67.2109 8.08545 66.9609 7.91357C66.7188 7.7417 66.4727 7.65576 66.2227 7.65576V7.15186C67.2773 7.24561 68.375 7.29248 69.5156 7.29248C70.4609 7.29248 71.5742 7.24561 72.8555 7.15186V7.65576C72.5117 7.65576 72.2422 7.66748 72.0469 7.69092C71.8516 7.71436 71.6836 7.77295 71.543 7.8667C71.4102 7.96045 71.3438 8.11279 71.3438 8.32373C71.3438 8.51123 71.3984 8.73779 71.5078 9.00342L74.4492 16.0933L76.0898 11.4761C76.3477 10.7104 76.4766 10.0698 76.4766 9.5542C76.4766 8.94482 76.3203 8.48389 76.0078 8.17139C75.6953 7.85107 75.2578 7.67139 74.6953 7.63232V7.15186Z" fill="black"/>
</svg>
